<svg width="584" height="325" viewBox="0 0 584 325" fill="none" xmlns="http://www.w3.org/2000/svg">
<path d="M237.336 320H231.636V291.322H237.336V303.363H247.311V291.322H253.011V320H247.311V308.707H237.336V320ZM271.039 313.124L271.11 312.839H276.454L276.383 313.338C275.777 317.506 272.607 320.321 267.299 320.321H267.227C260.744 320.321 257.074 316.259 257.074 309.419V309.099C257.074 302.223 260.637 298.162 266.942 298.162H267.014C273.07 298.162 276.276 301.867 276.454 309.419L276.49 310.987H262.525C262.988 313.766 264.698 315.369 267.299 315.369H267.37C269.329 315.369 270.683 314.478 271.039 313.124ZM267.085 303.149H267.049C264.662 303.149 263.13 304.574 262.596 307.068H270.897C270.612 304.432 269.365 303.149 267.085 303.149ZM289.099 320.321H288.957C282.829 320.321 279.908 317.756 279.338 313.267L279.267 312.697H284.931L285.003 313.053C285.288 314.549 286.677 315.511 289.064 315.511H289.206C291.593 315.511 292.983 314.799 292.983 313.623V313.481C292.983 312.162 291.486 311.771 289.491 311.521L285.501 310.987C282.402 310.559 279.588 309.134 279.588 305.109V304.895C279.588 300.656 283.043 298.162 288.886 298.162H289.028C294.799 298.162 297.543 300.798 298.184 304.966L298.255 305.429H292.591L292.519 305.109C292.234 303.791 290.952 302.971 288.743 302.971H288.601C286.499 302.971 285.252 303.612 285.252 304.717V304.752C285.252 306.106 286.499 306.676 288.244 306.926L292.234 307.46C295.512 307.887 298.647 309.134 298.647 313.338V313.587C298.647 317.934 295.084 320.321 289.099 320.321ZM303.678 303.506H300.828V298.518H303.678V292.925H309.199V298.518H313.831V303.506H309.199V312.376C309.199 314.229 310.054 315.119 311.836 315.119C312.441 315.119 313.154 315.012 313.831 314.906V319.929C312.655 320.214 311.444 320.356 310.304 320.356C305.886 320.356 303.678 318.183 303.678 313.766V303.506ZM323.615 296.131H317.737V291.322H323.615V296.131ZM323.437 320H317.915V298.518H323.437V320ZM337.501 298.162H337.572C343.521 298.162 346.621 301.083 346.621 306.071V320H341.099V319.715C341.099 318.076 341.313 316.972 342.168 314.015H341.954C340.564 318.326 338.035 320.356 334.294 320.356H334.223C330.198 320.356 327.419 317.934 327.419 313.944V313.801C327.419 310.488 329.307 308.279 333.938 307.816L338.106 307.389C340.101 307.175 341.099 306.498 341.099 305.429V305.358C341.099 304.04 339.531 303.327 337.501 303.327H337.429C334.758 303.327 333.796 304.61 333.653 305.928L333.618 306.284H328.096L328.131 305.892C328.594 300.762 331.801 298.162 337.501 298.162ZM335.791 314.87H335.826C338.783 314.87 340.564 313.374 340.992 310.737C340.351 311.022 339.531 311.201 338.391 311.307L336.04 311.557C333.867 311.771 333.083 312.269 333.083 313.196V313.267C333.083 314.193 333.831 314.87 335.791 314.87Z" fill="#272727"/>
<path d="M8 300.657C8.06393 300.239 8.11873 299.83 8.18266 299.412C8.62105 296.366 9.90883 293.729 12.0369 291.501C14.3019 289.128 17.0601 287.628 20.3115 287.173C25.5905 286.437 30.0748 288.046 33.6276 292.02C35.4908 294.102 36.6324 296.575 36.9978 299.339C37.6188 303.976 36.3584 308.067 33.1253 311.495C30.8968 313.859 28.1386 315.305 24.9329 315.796C20.4942 316.469 16.5121 315.368 13.0872 312.459C10.5756 310.331 9.00465 307.604 8.32879 304.394C8.2192 303.867 8.18266 303.312 8.10046 302.776C8.07307 302.612 8.03653 302.457 8.00913 302.294C8 301.748 8 301.203 8 300.657ZM12.7401 301.466C12.6944 306.731 17.0053 311.295 22.5948 311.304C27.8098 311.313 32.4586 307.204 32.4586 301.475C32.4586 295.866 27.9285 291.683 22.6222 291.656C17.1697 291.638 12.7401 296.047 12.7401 301.466Z" fill="#272727"/>
<path d="M39.7832 324.752C39.7832 315.105 39.7832 305.458 39.7832 295.775C41.1806 295.775 42.5414 295.775 43.9479 295.775C43.9479 296.502 43.9479 297.238 43.9479 298.084C44.1215 297.939 44.2219 297.866 44.3132 297.775C46.2677 295.984 48.5876 295.311 51.2088 295.538C53.3551 295.729 55.2365 296.538 56.8165 298.011C58.6432 299.712 59.657 301.839 59.9675 304.294C60.2232 306.276 60.0679 308.231 59.2825 310.086C57.9125 313.304 55.4922 315.241 52.0216 315.832C49.9758 316.187 47.9939 315.969 46.1216 315.023C45.4914 314.705 44.9252 314.305 44.4046 313.832C44.2859 313.723 44.1671 313.614 44.0027 313.468C43.9936 313.632 43.9753 313.732 43.9753 313.832C43.9753 317.405 43.9753 320.987 43.9753 324.561C43.9753 324.624 43.9845 324.679 43.9845 324.743C42.5871 324.752 41.1806 324.752 39.7832 324.752ZM43.7927 305.931C43.8201 306.185 43.8383 306.549 43.884 306.904C44.0941 308.313 44.6694 309.54 45.7289 310.513C47.0441 311.722 48.6241 312.186 50.3868 312.041C52.46 311.868 54.0309 310.886 55.0447 309.068C55.7571 307.795 55.9306 306.422 55.7754 304.985C55.4831 302.23 53.5743 299.666 50.2498 299.421C48.3866 299.284 46.7792 299.866 45.4914 301.248C44.3041 302.539 43.8566 304.112 43.7927 305.931Z" fill="#272727"/>
<path d="M126 306.476C125.945 306.804 125.882 307.122 125.827 307.449C125.105 311.768 121.689 315.141 117.36 315.85C112.063 316.723 106.967 313.396 105.688 308.204C104.291 302.512 107.853 297.02 113.351 295.766C119.032 294.465 124.585 298.021 125.772 303.694C125.863 304.131 125.927 304.585 126 305.022C126 305.503 126 305.985 126 306.476ZM122.046 305.731C122.036 302.458 119.461 299.412 115.68 299.403C112.063 299.393 109.323 302.258 109.314 305.722C109.305 309.204 112.081 312.086 115.698 312.068C119.415 312.059 122.046 309.068 122.046 305.731Z" fill="#272727"/>
<path d="M89.376 324.752C89.6317 324.079 89.8783 323.397 90.1523 322.724C93.7234 313.868 97.2944 305.022 100.865 296.175C100.92 296.048 100.975 295.929 101.03 295.775C102.546 295.775 104.062 295.775 105.569 295.775C105.587 295.784 105.596 295.793 105.606 295.811C105.615 295.82 105.615 295.839 105.615 295.857C105.578 295.975 105.551 296.084 105.505 296.202C101.651 305.722 97.7967 315.241 93.9426 324.761C92.4173 324.752 90.9012 324.752 89.376 324.752Z" fill="#272727"/>
<path d="M78.6085 298.13C78.6085 297.284 78.6085 296.538 78.6085 295.766C80.015 295.766 81.3758 295.766 82.7732 295.766C82.7732 302.412 82.7732 309.04 82.7732 315.669C82.4627 315.759 79.5949 315.796 78.7181 315.705C78.7181 315.341 78.7181 314.968 78.7181 314.596C78.7181 314.223 78.7181 313.841 78.7181 313.377C78.5172 313.559 78.371 313.686 78.234 313.814C76.791 315.141 75.074 315.805 73.1195 315.941C71.028 316.087 69.0643 315.696 67.256 314.623C65.0458 313.305 63.6301 311.368 62.9908 308.904C62.2053 305.876 62.4702 302.939 64.0776 300.221C65.6942 297.475 68.1328 295.902 71.3294 295.547C73.6675 295.293 75.7955 295.82 77.6678 297.275C77.823 297.393 77.9692 297.53 78.1153 297.657C78.2614 297.793 78.3984 297.93 78.6085 298.13ZM78.7546 305.84C78.709 305.376 78.6816 304.903 78.5994 304.44C78.3162 302.885 77.613 301.548 76.3435 300.566C73.5853 298.43 69.4205 299.284 67.7218 302.357C66.6167 304.358 66.5071 306.458 67.3564 308.577C67.941 310.022 68.9913 311.041 70.4435 311.622C71.4024 312.013 72.4071 312.141 73.4391 312.041C74.9826 311.895 76.2704 311.268 77.2659 310.086C78.298 308.868 78.7272 307.431 78.7546 305.84Z" fill="#272727"/>
<path d="M85.1299 295.766C86.646 295.766 88.089 295.766 89.5595 295.766C89.6325 295.92 89.7239 296.075 89.7969 296.238C91.4957 300.003 93.1945 303.767 94.9115 307.531C95.0485 307.831 95.0576 308.077 94.9298 308.386C94.3361 309.813 93.7699 311.241 93.1853 312.677C93.1397 312.786 93.0849 312.886 93.0027 313.077C90.3723 307.276 87.7694 301.557 85.1299 295.766Z" fill="#272727"/>
<mask id="mask0_48_3771" style="mask-type:luminance" maskUnits="userSpaceOnUse" x="429" y="294" width="155" height="23">
<path d="M429 294.396H583.52V316.603H429V294.396Z" fill="white"/>
</mask>
<g mask="url(#mask0_48_3771)">
<path d="M583.314 295.429H579.693V309.842L569.805 295.428H565.92V316.001H569.54V300.902L580.018 316.002H583.314V295.429V295.429ZM550.468 299.497L553.823 308.094H547.2L550.468 299.497ZM548.407 295.429L540.401 316.002H544.139L545.935 311.303H555.059L556.884 316.002H560.71L552.704 295.428H548.407V295.429ZM521.094 295.429V316.002H535.398V312.793H524.802V307.005H533.721V303.796H524.802V298.637H535.398V295.429H521.094ZM502.375 307.033H507.467C509.851 307.033 511.146 308.237 511.146 309.956C511.146 311.675 509.851 312.908 507.467 312.908H502.375V307.033ZM502.375 303.939V298.523H506.79C509.204 298.523 510.528 299.412 510.528 301.217C510.528 303.022 509.204 303.939 506.79 303.939H502.375ZM498.755 316.002H507.673C512.029 316.002 514.766 313.853 514.766 310.271C514.811 309.15 514.474 308.046 513.811 307.149C513.131 306.231 512.174 305.566 511.087 305.257C511.996 304.93 512.782 304.32 513.332 303.513C513.87 302.724 514.136 301.775 514.089 300.815C514.089 297.32 511.676 295.4 507.143 295.4H498.755V316.002V316.002ZM475.71 311.992C477.358 314.627 480.949 316.29 484.54 316.29C488.895 316.29 492.545 313.797 492.545 309.756C492.545 305.286 488.455 304.513 485.04 303.768C482.185 303.138 480.567 302.765 480.567 300.96C480.567 299.326 482.126 298.209 484.393 298.209C486.865 298.209 488.425 299.441 489.602 301.217L492.369 298.897C491.478 297.669 490.303 296.685 488.948 296.032C487.573 295.368 486.061 295.048 484.54 295.1C480.272 295.1 476.917 297.535 476.917 301.347C476.917 305.358 480.331 306.275 483.539 307.02C486.747 307.765 488.895 308.051 488.895 310.143C488.895 312.12 487.1 313.181 484.716 313.181C483.482 313.149 482.274 312.809 481.199 312.19C480.142 311.583 479.256 310.711 478.623 309.656L475.71 311.992ZM461.964 299.496L465.32 308.094H458.697L461.964 299.497V299.496ZM459.904 295.428L451.899 316.001H455.637L457.432 311.303H466.526L468.351 316.002H472.148L464.172 295.428H459.904ZM442.892 295.428V303.795H432.767V295.428H429V316.001H432.768V307.005H442.892V316.003H446.659V295.428H442.892Z" fill="#272727"/>
</g>
<g clip-path="url(#clip0_48_3771)">
<path d="M493.874 171.042C487.048 164.148 480.273 157.352 473.395 150.508C473.395 157.057 473.395 163.459 473.395 169.909C472.42 169.909 471.445 169.909 470.47 169.909C470.47 161.193 470.47 152.477 470.47 143.663C477.296 150.557 484.071 157.352 490.948 164.246C490.948 157.697 490.948 151.246 490.948 144.796C491.923 144.796 492.847 144.796 493.822 144.796C493.874 153.462 493.874 162.178 493.874 171.042Z" fill="#272727"/>
<path d="M530.93 161.439C530.93 166.659 526.772 170.549 521.281 170.549C515.943 170.549 511.734 166.561 511.734 161.39C511.734 156.17 515.943 152.231 521.435 152.231C526.772 152.28 531.032 156.318 530.93 161.439ZM528.825 161.439C528.825 157.401 525.592 154.151 521.435 154.151C517.329 154.151 513.941 157.451 513.941 161.439C513.941 165.428 517.329 168.727 521.383 168.727C525.489 168.727 528.774 165.477 528.825 161.439Z" fill="#272727"/>
<path d="M501.624 161.439C501.624 163.803 501.624 166.019 501.624 168.383C504.087 168.383 506.602 168.383 509.117 168.383C509.117 169.023 509.117 169.614 509.117 170.205C505.935 170.205 502.804 170.205 499.622 170.205C499.622 164.345 499.622 158.534 499.622 152.625C502.804 152.625 505.935 152.625 509.117 152.625C509.117 153.216 509.117 153.807 509.117 154.447C506.602 154.447 504.139 154.447 501.675 154.447C501.675 156.17 501.675 157.894 501.675 159.617C504.036 159.617 506.5 159.617 508.912 159.617C508.912 160.258 508.912 160.799 508.912 161.439C506.5 161.439 504.087 161.439 501.624 161.439Z" fill="#272727"/>
<path d="M550.895 159.617C553.307 159.617 555.719 159.617 558.132 159.617C558.132 160.208 558.132 160.799 558.132 161.439C555.719 161.439 553.307 161.439 550.895 161.439C550.895 163.754 550.895 166.019 550.895 168.383C553.358 168.383 555.873 168.383 558.337 168.383C558.337 169.023 558.337 169.614 558.337 170.205C555.155 170.205 552.024 170.205 548.842 170.205C548.842 164.345 548.842 158.534 548.842 152.625C552.024 152.625 555.155 152.625 558.337 152.625C558.337 153.216 558.337 153.807 558.337 154.447C555.822 154.447 553.358 154.447 550.895 154.447C550.895 156.17 550.895 157.845 550.895 159.617Z" fill="#272727"/>
<path d="M571.938 155.038C571.374 155.382 570.861 155.727 570.347 156.072C570.091 155.727 569.885 155.382 569.577 155.136C568.448 153.954 566.293 153.856 565.01 154.89C563.778 155.924 563.727 157.697 565.061 158.632C565.831 159.125 566.703 159.519 567.525 159.913C568.294 160.307 569.116 160.602 569.834 160.996C572.041 162.129 572.708 163.754 572.554 165.674C572.349 168.087 571.066 169.712 568.602 170.401C566.652 170.943 564.702 170.795 563.008 169.466C561.93 168.579 561.366 167.447 561.058 166.068C561.725 165.871 562.392 165.723 563.008 165.526C563.162 165.97 563.265 166.363 563.47 166.757C564.291 168.481 566.241 169.22 568.192 168.53C569.834 167.988 570.758 166.216 570.347 164.492C570.142 163.606 569.526 163.064 568.705 162.67C567.576 162.129 566.447 161.636 565.318 161.095C564.702 160.799 564.086 160.454 563.521 160.06C561.109 158.288 561.622 154.545 564.034 153.117C566.19 151.886 569.731 151.837 571.528 154.545C571.733 154.644 571.784 154.791 571.938 155.038Z" fill="#272727"/>
<path d="M531.494 152.576C532.213 152.576 532.88 152.576 533.496 152.576C533.65 152.576 533.906 152.822 533.958 153.019C535.549 157.106 537.14 161.242 538.731 165.329C538.782 165.477 538.885 165.674 538.988 165.92C539.809 163.852 540.579 161.882 541.297 159.863C542.221 157.549 543.093 155.235 543.966 152.92C544.069 152.625 544.223 152.477 544.582 152.477C545.146 152.477 545.762 152.477 546.43 152.477C543.966 158.731 541.451 164.935 538.988 171.238C536.421 165.034 533.958 158.879 531.494 152.576Z" fill="#272727"/>
<path d="M577.533 154.447C575.993 154.447 574.556 154.447 573.067 154.447C573.067 153.856 573.067 153.265 573.067 152.625C576.711 152.625 580.355 152.625 584.051 152.625C584.051 153.216 584.051 153.807 584.051 154.398C582.614 154.398 581.125 154.398 579.586 154.398C579.586 159.667 579.586 164.936 579.586 170.155C578.867 170.155 578.251 170.155 577.584 170.155C577.533 164.985 577.533 159.716 577.533 154.447Z" fill="#272727"/>
<path d="M430.003 162.415L430.899 161.604L429.985 160.672L429.088 161.482L430.003 162.415Z" fill="#272727"/>
<path d="M431.939 160.659L432.91 159.782L431.538 158.383L430.566 159.261L431.939 160.659Z" fill="#272727"/>
<path d="M433.925 159.049L434.934 158.137L433.139 156.309L432.13 157.22L433.925 159.049Z" fill="#272727"/>
<path d="M435.925 157.378L436.972 156.433L434.79 154.21L433.744 155.155L435.925 157.378Z" fill="#272727"/>
<path d="M437.698 155.512L438.872 154.556L436.713 152.116L435.539 153.072L437.698 155.512Z" fill="#272727"/>
<path d="M439.947 154.171L441.16 153.183L438.337 149.992L437.124 150.98L439.947 154.171Z" fill="#272727"/>
<path d="M443.169 153.901L444.343 152.945L439.958 147.99L438.784 148.946L443.169 153.901Z" fill="#272727"/>
<path d="M447.421 155.06L448.829 153.913L441.82 145.993L440.412 147.14L447.421 155.06Z" fill="#272727"/>
<path d="M453.431 157.709L454.918 156.498L443.524 143.622L442.038 144.833L453.431 157.709Z" fill="#272727"/>
<path d="M463.852 152.143L462.955 152.953L463.87 153.885L464.767 153.075L463.852 152.143Z" fill="#272727"/>
<path d="M461.919 153.858L460.947 154.735L462.319 156.134L463.291 155.256L461.919 153.858Z" fill="#272727"/>
<path d="M459.909 155.472L458.9 156.384L460.695 158.212L461.704 157.301L459.909 155.472Z" fill="#272727"/>
<path d="M457.888 157.152L456.842 158.097L459.023 160.32L460.069 159.375L457.888 157.152Z" fill="#272727"/>
<path d="M456.165 158.977L454.991 159.933L457.15 162.373L458.324 161.416L456.165 158.977Z" fill="#272727"/>
<path d="M453.892 160.372L452.679 161.36L455.502 164.551L456.715 163.563L453.892 160.372Z" fill="#272727"/>
<path d="M450.631 160.606L449.457 161.562L453.842 166.517L455.015 165.561L450.631 160.606Z" fill="#272727"/>
<path d="M446.427 159.485L445.019 160.632L452.027 168.553L453.436 167.405L446.427 159.485Z" fill="#272727"/>
<path d="M440.414 156.79L438.928 158.001L450.321 170.876L451.808 169.665L440.414 156.79Z" fill="#272727"/>
</g>
<path d="M264.313 149.044C268.39 149.044 272.488 149.044 276.564 149.044C277.456 149.044 278.305 149.171 279.133 149.489C280.025 149.829 280.79 150.359 281.448 151.017C284.845 154.433 288.264 157.829 291.682 161.224C291.98 161.521 292.298 161.754 292.723 161.839C293.338 161.967 293.912 161.839 294.4 161.415C294.485 161.33 294.591 161.245 294.676 161.16C298.498 157.362 302.299 153.542 306.121 149.744C306.652 149.213 307.289 148.959 308.032 149.022C309.136 149.107 309.985 149.935 310.155 150.932C310.304 151.76 310.07 152.46 309.476 153.054C305.611 156.916 301.747 160.757 297.882 164.619C296.969 165.532 295.908 166.147 294.634 166.444C293.89 166.614 293.126 166.656 292.34 166.55C290.79 166.359 289.474 165.68 288.37 164.556C284.994 161.182 281.597 157.786 278.22 154.412C277.923 154.115 277.605 153.861 277.18 153.776C277.031 153.733 276.883 153.733 276.734 153.712C276.628 153.712 276.522 153.712 276.416 153.712C268.135 153.712 259.875 153.712 251.594 153.712C250.49 153.712 249.365 152.927 249.216 151.611C249.089 150.359 249.917 149.319 251.042 149.065C251.212 149.022 251.403 149.022 251.594 149.022C255.841 149.044 260.087 149.044 264.313 149.044Z" fill="#1E1E20"/>
<path d="M230.572 149.044C235.222 149.044 239.893 149.044 244.543 149.044C244.926 149.044 245.308 149.065 245.669 149.213C246.624 149.617 247.198 150.593 247.091 151.611C246.985 152.63 246.221 153.479 245.223 153.67C245.053 153.712 244.883 153.712 244.713 153.712C240.997 153.712 237.26 153.712 233.545 153.712C233.46 153.712 233.375 153.712 233.29 153.712C233.056 153.733 232.929 153.882 232.908 154.094C232.908 154.158 232.908 154.221 232.908 154.285C232.908 157.595 232.908 160.906 232.908 164.216C232.908 165.638 231.761 166.72 230.338 166.593C229.064 166.487 228.215 165.426 228.194 164.344C228.194 164.216 228.194 164.11 228.194 163.983C228.194 160.757 228.194 157.532 228.194 154.306C228.194 153.861 228.024 153.712 227.599 153.712C223.862 153.712 220.147 153.712 216.41 153.712C215.284 153.712 214.223 152.927 214.031 151.739C213.819 150.423 214.711 149.32 215.857 149.065C216.027 149.022 216.197 149.022 216.388 149.022C221.123 149.044 225.837 149.044 230.572 149.044Z" fill="#1E1E20"/>
<path d="M327.863 166.614C326.186 166.593 324.615 165.956 323.341 164.662C320.135 161.457 316.928 158.253 313.722 155.07C313.043 154.391 312.363 153.712 311.684 153.033C311.195 152.545 310.962 151.972 310.962 151.293C310.983 150.211 311.811 149.234 312.873 149.043C313.701 148.895 314.423 149.128 315.017 149.723C317.99 152.693 320.984 155.685 323.957 158.656C324.848 159.548 325.761 160.46 326.653 161.351C327.396 162.094 328.543 162.094 329.307 161.351C330.242 160.439 331.176 159.505 332.11 158.571C335.061 155.622 338.013 152.693 340.943 149.744C341.474 149.213 342.111 148.959 342.875 149.022C344.001 149.128 344.765 149.956 344.956 150.89C345.126 151.738 344.892 152.46 344.277 153.075C340.412 156.937 336.548 160.8 332.683 164.662C331.728 165.617 330.56 166.253 329.222 166.508C328.84 166.571 328.416 166.593 327.863 166.614Z" fill="#1E1E20"/>
<path d="M354.467 149.001C356.272 149.043 357.822 149.659 359.117 150.932C363.003 154.815 366.91 158.699 370.795 162.582C372.069 163.855 371.517 165.998 369.797 166.508C368.906 166.762 368.099 166.529 367.44 165.892C366.166 164.64 364.914 163.388 363.661 162.115C361.113 159.569 358.565 157.022 355.996 154.476C355.932 154.412 355.847 154.327 355.784 154.264C355.04 153.542 353.894 153.542 353.151 154.264C353.087 154.327 353.002 154.412 352.938 154.476C349.116 158.295 345.294 162.094 341.494 165.914C341.048 166.359 340.496 166.614 339.88 166.614C338.606 166.635 337.65 165.723 337.481 164.619C337.374 163.813 337.629 163.113 338.203 162.54C340.729 160.014 343.256 157.489 345.783 154.964C347.12 153.627 348.458 152.269 349.817 150.932C350.815 149.956 352.004 149.341 353.363 149.107C353.724 149.043 354.085 149.001 354.467 149.001Z" fill="#1E1E20"/>
<path d="M262.103 166.593C258.663 166.593 255.245 166.593 251.805 166.593C251.423 166.593 251.041 166.572 250.68 166.423C249.724 166.02 249.13 165.044 249.236 164.025C249.342 162.986 250.128 162.137 251.147 161.946C251.295 161.925 251.444 161.903 251.614 161.903C258.621 161.903 265.628 161.903 272.613 161.903C273.675 161.903 274.673 162.646 274.928 163.749C275.204 164.98 274.397 166.275 273.166 166.551C272.953 166.593 272.741 166.614 272.529 166.614C272.21 166.614 271.892 166.614 271.552 166.614C268.409 166.593 265.267 166.593 262.103 166.593Z" fill="#1E1E20"/>
<path d="M258.877 155.452C261.298 155.452 263.697 155.452 266.118 155.452C267.434 155.452 268.475 156.45 268.517 157.765C268.538 159.123 267.498 160.036 266.458 160.142C266.288 160.163 266.118 160.163 265.948 160.163C261.17 160.163 256.414 160.163 251.637 160.163C250.766 160.163 250.044 159.802 249.577 159.06C248.664 157.595 249.577 155.749 251.191 155.495C251.34 155.473 251.467 155.452 251.616 155.452C254.036 155.452 256.457 155.452 258.877 155.452Z" fill="#1E1E20"/>
<path d="M352.111 164.259C352.111 162.964 353.172 161.903 354.468 161.925C355.763 161.925 356.803 162.986 356.803 164.28C356.803 165.447 355.911 166.636 354.446 166.636C353.003 166.614 352.089 165.426 352.111 164.259Z" fill="#1E1E20"/>
<g clip-path="url(#clip1_48_3771)">
<path d="M66.0928 183.973C60.1346 183.758 54.0138 182.318 47.7563 179.658C45.2097 178.575 42.5164 177.235 39.7758 175.685C37.9682 174.663 33.8305 172.152 33.6001 171.938C33.4552 171.803 33.3984 171.676 33.3984 171.488C33.3984 171.14 33.651 170.891 34.004 170.891C34.1869 170.892 34.2311 170.911 34.6632 171.176C36.3973 172.242 38.7959 173.449 41.133 174.432C52.0177 179.01 64.913 180.618 77.2915 178.94C85.7452 177.794 93.871 175.112 100.21 171.377C101.124 170.838 101.208 170.809 101.482 170.949C101.861 171.143 101.943 171.616 101.648 171.906C101.532 172.019 101.39 172.11 99.3093 173.39C93.7603 176.806 89.2803 179.061 84.6157 180.786C78.3416 183.106 72.0541 184.188 66.0928 183.973Z" fill="#272727"/>
<path fill-rule="evenodd" clip-rule="evenodd" d="M5 145.603C5 145.603 5.11733 145.969 5.23081 147.009C5.36686 149.601 5.37408 151.749 5.3898 154.144C5.42113 155.994 5.4028 157.796 5.38668 159.532C5.3758 160.707 5.3676 161.348 5.3676 162.416C5.3676 165.596 5.11318 167.825 5.11318 167.825C5.11318 167.825 7.48464 168.331 11.0641 168.331C14.6448 168.331 18.4441 167.102 20.6363 165.259C22.828 163.416 24.8005 160.778 24.8005 156.045C24.8005 151.312 22.7549 148.71 20.0518 147.012C17.3479 145.314 13.2199 144.989 10.0413 145.133C6.86344 145.278 5.10996 145.603 5 145.603ZM129.5 163.416L124.718 162.297C123.463 163.524 122.107 164.135 120.366 164.103C116.782 164.038 115.001 161.948 114.338 158.502H129.754C129.973 157.274 130.045 155.973 129.973 154.744C129.826 152.263 129.056 149.979 127.489 148.024C125.937 146.088 123.269 145.073 119.969 145.097C116.87 145.12 114.338 146.17 112.333 148.277C110.449 150.256 109.321 153.274 109.374 157.201C109.424 160.932 110.384 163.71 112.735 165.982C114.371 167.564 116.571 168.409 119.457 168.403C124.955 168.239 127.24 166.486 129.5 163.416ZM125.585 154.673H114.519C114.715 151.842 117.335 149.205 120.111 149.218C122.985 149.231 125.453 151.264 125.585 154.673ZM77.0597 149.381C80.7193 149.381 83.687 152.657 83.687 156.698C83.687 160.738 80.7193 164.015 77.0597 164.015C73.4013 164.015 70.433 160.738 70.433 156.698C70.433 152.657 73.4013 149.381 77.0597 149.381ZM77.2022 145C83.3433 145 88.3228 150.277 88.3228 156.698C88.3228 163.118 83.2007 168.325 77.0597 168.325C70.9198 168.325 65.9398 163.118 65.9398 156.698C65.9398 150.277 71.0623 145 77.2022 145ZM89.2864 167.536H94.251V152.685C98.7935 156.624 102.141 161.574 104.15 167.536L108.414 167.561V145.747L103.661 145.747L103.655 156.434C102.167 153.973 100.345 151.948 98.553 150.203C96.7583 148.454 95.3007 146.974 93.4838 145.747H89.2864L89.2864 167.536ZM45.9163 167.536H50.7386V152.685C55.2809 156.624 58.5574 161.574 60.5665 167.536H64.8771V145.747H60.0543V156.26C57.2522 152.267 53.8576 148.68 49.972 145.747H45.9163V167.536ZM32.144 145.747H36.8202C41.3608 150.716 44.1402 157.943 45.0767 167.536H39.9982C39.8662 165.87 39.6604 164.338 39.3812 162.801H29.3562C29.0778 164.336 28.8738 165.867 28.7463 167.536H23.8144C24.704 157.885 27.6844 150.417 32.144 145.747ZM38.4455 158.719C37.3554 155.276 36.0575 152.443 34.3009 149.83C32.5556 152.453 31.1906 155.41 30.2259 158.719H38.4455ZM10.0838 149.397C10.0838 149.397 11.0641 149.36 12.2702 149.36C13.4761 149.36 16.11 149.577 18.0458 151.456C19.9818 153.336 20.0185 155.467 20.0185 156.949C20.0185 158.43 19.5037 161.646 16.3251 163.091C13.1471 164.537 10.0473 163.995 10.0473 163.995L10.0838 149.397Z" fill="#272727"/>
</g>
<path d="M152.679 22.2392L152.619 20.609C152.562 18.9433 152.213 18.0555 150.89 17.5958C152.233 17.1755 152.972 16.0244 152.972 14.3351C152.972 11.6716 151.513 10.4224 148.479 10.4224H141.699V24.2153H144.573V18.8451H147.627C149.219 18.8451 149.649 19.4029 149.705 21.0333L149.745 22.4868C149.765 23.2371 149.866 23.8146 150.079 24.2153H153.225V23.795C152.699 23.5279 152.695 23.0485 152.679 22.2392ZM147.957 16.4486H144.577V12.8031H148.093C149.436 12.8031 150.095 13.4355 150.095 14.6259C150.095 15.8908 149.411 16.4486 147.957 16.4486Z" fill="#272727"/>
<path d="M147.02 5.09131C140.139 5.09131 134.541 10.6187 134.541 17.4111C134.541 24.2034 140.139 29.7268 147.02 29.7268C153.9 29.7268 159.498 24.2034 159.498 17.4111C159.498 10.6148 153.9 5.09131 147.02 5.09131ZM147.02 26.8512C141.747 26.8512 137.455 22.6163 137.455 17.4111C137.455 12.2059 141.747 7.97089 147.02 7.97089C152.293 7.97089 156.585 12.2059 156.585 17.4111C156.585 22.6163 152.293 26.8512 147.02 26.8512Z" fill="#272727"/>
<path d="M0 20.947C0.277304 26.1719 3.90633 29.2086 10.2321 29.2086C16.6623 29.2086 20.2271 26.2072 20.2271 21.1552C20.2271 18.6292 19.2223 16.7868 17.1848 15.6593C15.6254 14.8068 13.6924 14.3275 11.3373 13.7461C7.22598 12.7247 5.32503 12.7247 5.32503 10.4029C5.32503 8.52511 6.81202 7.43306 9.5087 7.43306C12.5832 7.43306 14.2791 8.698 14.4519 11.0865H19.363C19.1902 6.16806 15.8023 3.30029 9.95882 3.30029C3.70139 3.30029 0.381739 5.96768 0.381739 10.7094C0.381739 13.2668 1.31418 15.18 3.07446 16.2721C4.70211 17.2975 6.57088 17.6392 8.57229 18.0792C13.1378 19.1006 15.2115 19.5484 15.2115 21.7994C15.2115 23.8501 13.7245 24.9069 10.7144 24.9069C7.29832 24.9069 5.4255 23.6773 5.04772 20.947H0Z" fill="#272727"/>
<path d="M37.5854 10.4028H32.6743V21.1198C32.6743 23.5084 31.1873 24.9422 28.9045 24.9422C26.7986 24.9422 26.0672 23.8148 26.0672 21.3555V10.4028H21.1602V22.758C21.1602 26.9222 23.1696 29.0042 27.2126 29.0042C29.5275 29.0042 31.3922 28.1164 32.7788 26.3761V28.5249H37.5854V10.4028Z" fill="#272727"/>
<path d="M38.7734 35.7961H43.5479V26.2734C44.7536 28.1513 46.6224 29.1413 48.9734 29.1413C53.2616 29.1413 56.5129 25.3502 56.5129 19.3789C56.5129 13.5766 53.362 9.78564 48.9051 9.78564C46.5178 9.78564 44.858 10.7402 43.4394 12.8576V10.4023H38.7774L38.7734 35.7961ZM51.6339 19.5832C51.6339 22.9617 50.0786 24.9417 47.6592 24.9417C45.067 24.9417 43.5479 23.0285 43.5479 19.5832C43.5479 15.863 44.9625 13.9538 47.5547 13.9538C50.1831 13.9538 51.6339 15.8983 51.6339 19.5832Z" fill="#272727"/>
<path d="M62.5224 17.5686C62.7273 15.1133 64.0094 13.8169 66.1153 13.8169C68.398 13.8169 69.6801 15.1133 69.7484 17.5686H62.5224ZM69.676 23.0292C69.0531 24.4317 67.9841 25.0445 66.3243 25.0445C63.937 25.0445 62.655 23.5753 62.5184 20.7468H74.7961C74.8283 20.3029 74.8283 19.8903 74.8283 19.4817C74.8283 13.2354 71.6131 9.75488 66.0108 9.75488C60.7219 9.75488 57.4385 13.4083 57.4385 19.3442C57.4385 25.453 60.8586 29.1419 66.0791 29.1419C70.4396 29.1419 73.5824 26.8202 74.5871 23.0292H69.676Z" fill="#272727"/>
<path d="M76.0781 28.5209H80.9932V18.9355C80.9932 16.2052 82.3758 14.838 85.0363 14.838H86.6599V9.92739C86.4188 9.8881 86.1776 9.88818 85.9365 9.88818C83.5854 9.88818 81.9256 11.0156 80.6436 13.5063V10.4027H76.0821L76.0781 28.5209Z" fill="#272727"/>
<path d="M91.2684 19.3437C91.2684 15.9652 92.8278 13.9853 95.2471 13.9853C97.8393 13.9853 99.3625 15.8984 99.3625 19.3437C99.3625 23.064 97.9438 24.9772 95.3516 24.9772C92.7273 24.9772 91.2684 23.0286 91.2684 19.3437ZM104.133 3.9873H99.3665V12.6535C98.1528 10.7796 96.2518 9.78579 93.9008 9.78579C89.6126 9.78579 86.3613 13.5767 86.3613 19.548C86.3613 25.3504 89.5081 29.1375 93.9691 29.1375C96.3563 29.1375 98.0483 28.1828 99.467 26.0693V28.5246H104.137L104.133 3.9873Z" fill="#272727"/>
<path d="M105.17 28.5209H110.081V18.9355C110.081 16.2052 111.464 14.838 114.124 14.838H115.752V9.92739C115.511 9.8881 115.269 9.88818 115.028 9.88818C112.673 9.88818 111.013 11.0156 109.735 13.5063V10.4027H105.17V28.5209Z" fill="#272727"/>
<path d="M118.807 35.7961C119.671 35.8982 120.366 35.9296 120.881 35.9296C124.409 35.9296 125.724 34.8375 126.797 31.7654L134.332 10.3984H129.18L125.414 23.4763L121.54 10.4023H116.143L122.75 28.7287C122.812 28.8922 122.846 29.0649 122.85 29.2394C122.85 31.0543 121.886 31.9383 119.948 31.9383C119.671 31.9383 119.257 31.9383 118.803 31.8676L118.807 35.7961Z" fill="#272727"/>
<path d="M27.1361 6.93808C27.1361 6.93808 27.8152 6.27026 27.98 5.95991C27.98 5.95991 28.5306 6.65521 28.9365 6.96949L29.3947 6.19166C29.3947 6.19166 28.5467 5.41771 28.4382 5.17021C28.4382 5.17021 29.0008 3.98386 29.1616 2.68746L28.7918 2.18465C28.7918 2.18465 28.5989 2.22002 28.4944 2.22002H27.3048C27.3048 2.22002 27.0959 2.20823 27.0155 2.16895V3.08429C27.0155 3.08429 27.12 3.06067 27.3289 3.06067H28.2292C28.2292 3.06067 28.0604 4.11349 27.968 4.34527C27.968 4.34527 27.5902 3.4732 27.5661 3.15107L26.923 3.56348C26.923 3.56348 27.2928 4.84815 27.5259 5.19779C27.5259 5.19779 26.9632 5.99916 26.6377 6.24273L27.1361 6.93808Z" fill="#272727"/>
<path d="M26.026 7.0201C25.7688 7.09081 24.8364 7.07909 24.8364 7.07909L24.6113 6.1912C24.7319 6.23048 25.5156 6.24227 25.5156 6.24227C25.8009 6.24227 25.829 5.53517 25.829 5.53517C26.0139 3.94807 25.9456 2.76169 25.9456 2.76169H25.4754V5.98295L25.1137 5.9712H24.0005L23.5825 5.98295L23.6226 5.57054V4.06595L23.3092 4.8005C23.137 4.48923 22.9879 4.16625 22.8631 3.83408V7.98256C22.8631 8.23398 22.9033 8.43442 22.9033 8.43442H21.9388C21.9748 8.28617 21.9963 8.13481 22.003 7.98256V4.42729C21.8423 5.24048 21.1912 6.26972 21.1912 6.26972L20.709 5.3937C21.6373 4.06588 21.8825 2.5809 21.8825 2.5809H21.348L20.9863 2.63197V1.64206L21.2957 1.68126H21.9388V0.420283C21.9388 0.302428 21.8825 0.0981445 21.8825 0.0981445H22.9153C22.8752 0.161 22.8349 0.443901 22.8349 0.443901V1.70092H23.1766C23.257 1.70092 23.3856 1.66951 23.3856 1.66951V2.58486C23.3454 2.57307 23.1524 2.56124 23.1524 2.56124H22.8631C22.9676 3.02087 23.6187 3.92448 23.6187 3.92448V2.8166C23.6187 2.74981 23.5945 2.50633 23.5945 2.50633C23.6467 2.51811 23.8839 2.52983 23.8839 2.52983H24.7037L25.2784 1.31992H23.9522C23.6227 1.31992 23.3735 1.34737 23.3735 1.34737V0.420283C23.4378 0.443854 23.8437 0.471355 23.8437 0.471355H28.7427C28.9002 0.469509 29.0574 0.456341 29.213 0.432032V1.37495C29.1446 1.34745 28.7508 1.33563 28.7508 1.33563H26.2711L25.9577 1.99165H26.4801C26.5725 1.99165 26.8458 1.96815 26.8458 1.96815C26.8458 1.96815 26.7414 5.12657 26.6248 5.76691C26.6248 5.76691 26.5444 6.86689 26.0219 7.0201M24.756 3.29195H24.3139V5.20128H24.756V3.29195Z" fill="#272727"/>
<path d="M23.2051 8.16324V7.19287C23.2051 7.19287 23.4944 7.23219 23.5949 7.23219H28.8557L29.2978 7.20078V8.15137C29.2978 8.15137 29.0566 8.11217 28.8798 8.11217H23.5949C23.5949 8.11217 23.3136 8.12003 23.2051 8.16324Z" fill="#272727"/>
<path d="M37.1434 4.47844C37.063 4.46666 36.7817 4.46669 36.7817 4.46669H33.7996C33.6308 4.46669 33.3817 4.47844 33.3817 4.47844C33.4099 4.39987 33.434 3.98738 33.434 3.98738V3.06425H32.1438C32.1559 6.86309 31.099 8.39517 31.099 8.39517L30.3555 7.54661C31.3321 6.19128 31.1512 1.26497 31.1512 1.26497C31.1512 1.16283 31.111 0.742501 31.111 0.742501C31.1633 0.781786 31.7259 0.781825 31.7259 0.781825H34.4145V0.420363C34.4145 0.330008 34.3904 0.0825195 34.3904 0.0825195H35.4756C35.4354 0.172875 35.4353 0.392909 35.4353 0.392909V0.766119H38.3611C38.5299 0.766119 38.7911 0.742501 38.7911 0.742501V1.65389C38.7268 1.6421 38.4254 1.64214 38.4254 1.64214H37.1353V2.24709H38.4616C38.542 2.24709 38.8032 2.20777 38.8032 2.20777V3.08391C38.751 3.07212 38.5017 3.07204 38.5017 3.07204H37.1193V4.1563C37.1193 4.24273 37.1474 4.47844 37.1474 4.47844M33.45 1.63027H32.164V2.24709H33.45V1.63027ZM36.1829 1.63027H34.4065V2.24709H36.1829V1.63027ZM36.1829 3.06029H34.4065V3.67711H36.1829V3.06029Z" fill="#272727"/>
<path d="M32.8986 4.99351H37.038C37.1485 4.98626 37.2586 4.97311 37.3676 4.95418L37.8499 5.48457C37.6308 5.72142 37.4164 5.96238 37.2069 6.20737C37.1064 6.33308 36.1619 7.02057 36.1619 7.02057C37.1184 7.41734 38.8827 7.45276 38.8827 7.45276L38.5009 8.44663C36.2423 8.18735 35.2215 7.57061 35.2215 7.57061C34.3374 8.12453 32.143 8.44663 32.143 8.44663L31.7773 7.51954C33.2121 7.50775 34.3655 7.03232 34.3655 7.03232C33.843 6.75732 33.1357 5.76342 33.1357 5.76342L32.4846 5.80275V4.93848C32.5088 4.95419 32.8986 4.99351 32.8986 4.99351ZM35.2778 6.63165C35.523 6.56879 36.4111 5.76738 36.4111 5.76738H34.2168C34.4298 6.10523 35.2778 6.63165 35.2778 6.63165Z" fill="#272727"/>
<path d="M42.5006 0.43239V1.00989H43.6621C43.8429 1.00989 44.0639 0.970565 44.0639 0.970565V1.87416C44.0037 1.86237 43.7143 1.83484 43.7143 1.83484H42.5087V2.40059H43.7947V2.63233C44.6909 1.56378 44.9401 0.118164 44.9401 0.118164L45.9448 0.275337C45.9167 0.507117 45.6595 1.24163 45.6595 1.24163H47.8538C48.0347 1.24163 48.3481 1.20243 48.3481 1.20243V2.18455C48.2878 2.16883 47.8658 2.14523 47.8658 2.14523H45.2536C45.2013 2.27094 44.6909 2.99379 44.6909 2.99379H47.0058C47.2912 2.99379 47.4599 2.95447 47.4599 2.95447L48.0105 3.63807C47.255 4.16448 45.5791 6.17588 45.4786 6.38409C45.3701 6.58838 45.0727 7.01262 45.3581 7.20904C45.6474 7.40154 46.4311 7.31122 46.8611 7.29944C47.2911 7.28765 47.3836 6.8869 47.3836 6.8869C47.5001 6.52155 47.4358 5.86546 47.4358 5.86546L48.4003 6.22692C48.2959 7.85331 47.7975 7.99478 47.7975 7.99478C47.3554 8.28942 46.1297 8.23828 46.1297 8.23828C44.928 8.23828 44.6146 8.0419 44.6146 8.0419C43.7264 7.59405 44.4578 6.2662 44.7472 5.80264C45.0325 5.33908 46.5074 3.88168 46.5074 3.88168H44.8236C44.7 3.89222 44.5776 3.91322 44.4578 3.9445V3.27661L44.2207 3.53592L43.7666 3.09593V5.39011C43.7666 5.51974 43.7786 5.67304 43.7786 5.67304C43.7264 5.66125 43.4129 5.66117 43.4129 5.66117H42.5247V6.25054H43.4893C43.65 6.25054 43.9314 6.23088 43.9314 6.23088V7.14622C43.8021 7.12736 43.672 7.11422 43.5415 7.1069H42.4846V8.05761C42.4895 8.19321 42.511 8.32771 42.5488 8.45827H41.5321C41.5602 8.36792 41.5964 8.04586 41.5964 8.04586V7.11865H40.463C40.3023 7.11865 40.029 7.15797 40.029 7.15797V6.21517C40.0692 6.25446 40.447 6.27008 40.447 6.27008H41.5964V5.63767H40.2742C40.2892 5.53479 40.2986 5.43115 40.3023 5.32728V2.76205C40.3023 2.68348 40.2742 2.38884 40.2742 2.38884C40.3706 2.40062 40.4349 2.40055 40.656 2.41233H41.5964V1.82309H40.3706C40.2483 1.83172 40.1262 1.84486 40.0049 1.86241V0.931362C40.0411 0.970647 40.4068 0.982434 40.4068 0.982434H41.5843V0.43239C41.5843 0.314535 41.5441 0.129913 41.5441 0.129913H42.5609C42.5609 0.169198 42.5006 0.43239 42.5006 0.43239ZM42.9025 3.15096H41.2065V3.65377H42.9025V3.15096ZM42.9025 4.37274H41.2065V4.87555H42.9025V4.37274Z" fill="#272727"/>
<path d="M49.7259 1.98779L50.4814 2.08214C50.4814 2.08214 50.5337 3.87351 50.2082 4.73778L49.4365 4.36061C49.4365 4.36061 49.754 3.28026 49.7259 1.98779Z" fill="#272727"/>
<path d="M52.9658 0.432239H56.4783C56.4783 0.432239 56.7637 0.432285 56.832 0.404785V2.2079C56.832 2.2079 56.832 2.34936 56.844 2.46721L56.5065 2.45546H53.3717C53.3717 2.45546 53.0422 2.47895 52.9899 2.49467L53.002 2.094V0.844773C53.002 0.844773 52.9899 0.561879 52.9658 0.432239ZM55.9036 1.16296H53.9062V1.77186H55.9036V1.16296Z" fill="#272727"/>
<path d="M50.6785 0.263184H51.6993C51.6993 0.263184 51.6471 0.534292 51.6471 0.675717V2.41205C51.6471 2.41205 52.1293 1.83464 52.1695 1.62643L52.7 2.24709L52.3102 2.7264C52.3102 2.7264 52.5352 2.74989 52.7 2.74989H54.2955C54.2955 2.74989 54.6371 2.76565 54.6894 2.73815V4.55708H55.0792V3.0839C55.0792 3.0839 55.0792 2.78529 55.0672 2.73815L55.5092 2.74989H57.2775C57.2775 2.74989 57.5629 2.74993 57.6513 2.73815C57.6513 2.73815 57.6393 2.9189 57.6393 3.03283V4.36059L57.6634 4.65527H55.3927V5.13062H57.2615C57.2615 5.13062 57.7196 5.13061 57.7839 5.09526V5.94778C57.7839 5.94778 57.575 5.93591 57.2494 5.93591H55.8267C55.8267 5.93591 56.2929 6.6548 58.0452 7.28728L57.5468 8.19088C57.5468 8.19088 55.7624 7.24024 55.3686 6.45455V8.23404C55.3686 8.23404 55.3806 8.45017 55.4208 8.49731H54.3638C54.3638 8.49731 54.4402 8.30476 54.4402 8.16726V6.47804C54.4402 6.47804 53.7489 7.56235 52.2097 8.24591L51.7275 7.50728C51.7275 7.50728 53.3189 6.90239 53.9459 5.96348H52.483C52.483 5.96348 52.274 6.01456 52.2338 6.01456L52.5473 6.25805L52.0891 7.12232C52.0891 7.12232 51.3095 6.39948 51.2452 6.08913C51.2452 6.08913 50.9397 7.44447 50.0797 8.3441L49.3965 7.59767C49.3965 7.59767 50.5097 6.64704 50.6423 4.43923C50.6423 4.43923 50.771 1.3082 50.7227 0.742495C50.7227 0.742495 50.7227 0.302468 50.6785 0.263184ZM51.5948 3.43349C51.5565 3.96624 51.5217 4.49926 51.4903 5.03244C51.5185 5.19743 52.1534 5.94778 52.1534 5.94778V5.09526L52.6639 5.12271H54.4V4.67098H52.5835C52.4706 4.67525 52.3579 4.68439 52.2459 4.69843C52.262 4.63165 52.2619 4.392 52.2619 4.392V3.11531C52.2619 3.00924 52.2218 2.80492 52.2218 2.80492C52.1535 2.92278 51.5948 3.43349 51.5948 3.43349ZM53.9177 3.42175H53.0537V4.01879H53.9177V3.42175ZM56.8154 3.42175H55.8388V4.01879H56.8154V3.42175Z" fill="#272727"/>
<path d="M64.5192 0.467285H63.2211V0.860157L63.1407 5.54681C63.1407 5.73145 63.1006 7.40892 64.479 7.9864C64.479 7.9864 68.2809 9.17679 69.3942 5.31902C69.3942 5.31902 69.6032 4.72581 69.6353 4.67474L68.4939 3.94799C68.4939 3.94799 68.3091 5.61362 67.4611 6.43074C66.6131 7.25572 65.0497 7.23606 64.6398 6.68214C64.2299 6.12823 64.3464 5.08715 64.3464 4.06967C64.3464 3.04827 64.4389 1.04475 64.4509 0.938684L64.5192 0.467285Z" fill="#272727"/>
<path d="M70.5358 1.70505V2.77361H71.9947C71.9947 2.77361 71.2793 5.01681 70.2344 6.40357L71.2913 7.05168C71.2913 7.05168 72.7783 4.08184 73.132 2.73045C73.132 2.73045 74.7114 2.58902 74.9084 2.51045L74.8923 1.44189C74.8923 1.44189 74.418 1.61469 73.4173 1.70505L73.767 0.306557L72.5493 0.161133C72.5493 0.161133 72.5372 0.43614 72.5211 0.518638L72.272 1.78357L71.0542 1.75612C71.0542 1.75612 70.6323 1.74433 70.5358 1.70505Z" fill="#272727"/>
<path d="M75.3584 2.21987L75.917 1.33594C75.917 1.33594 77.5447 1.90558 78.5373 2.57342L78.035 3.50051C78.035 3.50051 76.6444 2.61665 75.3584 2.21987Z" fill="#272727"/>
<path d="M75.515 3.28027H76.6162C76.6162 3.28027 76.5117 3.59458 76.4957 3.72422C76.4876 3.85779 76.4957 5.24454 76.564 5.51954C76.564 5.51954 77.8902 6.08918 78.4971 6.75702L77.9666 7.79021C77.9666 7.79021 77.3718 7.10264 76.5358 6.6273C76.5358 6.6273 76.6564 7.7784 75.6356 8.15946C74.6148 8.54446 73.373 8.22619 72.9349 7.71156C72.4969 7.19693 72.3723 6.02238 73.3569 5.46846C73.3569 5.46846 74.0602 4.97742 75.4628 5.26813C75.4628 5.26813 75.3704 3.60634 75.515 3.28027ZM73.7708 6.45838C73.4091 7.07515 73.9798 7.39334 74.868 7.30299C75.6878 7.21656 75.4668 6.23455 75.4668 6.23455C75.0931 6.15598 74.1285 5.83768 73.7708 6.45838Z" fill="#272727"/>
<path d="M79.7351 1.96836C79.7351 1.96836 80.9809 2.11363 83.1511 1.83864C83.1511 1.83864 82.5965 0.530465 82.5804 0.400825L83.7459 0.243652C83.7459 0.243652 84.1478 1.53615 84.2885 1.72079C84.2885 1.72079 85.9202 1.41437 86.5431 1.16295L86.6877 2.27467C86.6877 2.27467 84.9516 2.64397 84.6502 2.66754C84.6502 2.66754 85.47 4.29395 86.2899 5.31143L85.2168 5.79853C85.2168 5.79853 84.6502 5.11105 82.8698 5.18962C82.8698 5.18962 81.005 5.16216 81.0613 6.31321C81.1135 7.46032 84.4894 7.31491 85.8277 6.52529L85.9724 7.72357C85.9724 7.72357 83.9629 8.45034 81.9052 8.14785C81.9052 8.14785 79.522 7.88062 79.936 5.79853C79.936 5.79853 80.5951 3.46114 84.5577 4.50218C84.5577 4.50218 83.6414 3.12716 83.549 2.8011C83.549 2.8011 80.8965 3.0918 80.1731 3.0368L79.7994 3.0525L79.7109 1.96836" fill="#272727"/>
<path d="M88.0947 1.06104H89.3285C89.3285 1.06104 89.2884 1.39108 89.3004 1.56001C89.3004 1.56001 89.1276 4.33344 89.6983 5.84983C89.6983 5.84983 90.3614 7.92405 91.1049 4.40806L92.0172 5.25663C92.0172 5.25663 91.4344 7.76299 90.269 7.7787C89.1035 7.79049 88.0385 6.39198 88.0947 1.06104Z" fill="#272727"/>
<path d="M91.7511 1.9174L92.7277 1.43018C92.7277 1.43018 94.3352 3.43378 94.6567 6.41942L93.6681 6.828C93.6681 6.828 93.5917 4.09378 91.7511 1.9174Z" fill="#272727"/>
<path d="M62.0434 0H61.103C60.046 1.41425 59.5195 2.85986 59.5195 4.17197C59.5195 5.48408 60.046 6.92195 61.103 8.34406H62.0434C61.2423 7.09401 60.8214 5.64702 60.8297 4.17197C60.8297 2.66736 61.2236 1.31997 62.0434 0Z" fill="#272727"/>
<path d="M95.3359 0C96.1558 1.31997 96.5537 2.66736 96.5537 4.17197C96.5537 5.67265 96.1518 7.0241 95.3359 8.34406H96.2804C97.3414 6.92195 97.8598 5.48016 97.8598 4.17197C97.8598 2.85986 97.3374 1.41818 96.2804 0H95.3359Z" fill="#272727"/>
<path d="M310.384 5.19024L313.809 4.10742V26.1247C313.809 30.1853 312.367 32.9826 307.771 32.9826C306.959 32.9826 305.878 32.8021 305.157 32.5314L305.878 29.8244C306.419 30.0048 307.23 30.0951 307.861 30.0951C310.114 30.0951 310.475 28.2904 310.475 25.6736V5.19024H310.384ZM323.904 24.5005C326.518 24.5005 327.96 22.2446 327.96 19.0864C327.96 15.838 326.428 13.6723 323.814 13.6723C321.2 13.6723 319.758 15.9282 319.758 19.0864C319.848 22.2446 321.38 24.5005 323.904 24.5005ZM329.402 12.9504C330.754 14.3942 331.565 16.4696 331.565 18.9059C331.565 21.3423 330.754 23.5079 329.312 24.9517C327.96 26.3052 326.067 27.1173 323.904 27.1173C321.741 27.1173 319.938 26.4857 318.677 25.2224C317.144 23.7786 316.333 21.5228 316.333 18.9962C316.333 16.4696 317.144 14.304 318.586 12.8602C319.938 11.4165 321.741 10.6946 323.904 10.6946C326.157 10.7848 328.05 11.5969 329.402 12.9504ZM271.628 23.3275C270.997 23.7786 270.006 24.32 269.014 24.32C268.023 24.32 267.482 23.6884 267.482 22.5153V13.943H271.177V11.236H267.392V7.17541L263.967 8.25823V23.6884C263.967 25.7638 265.048 27.2076 267.662 27.2076C268.834 27.2076 270.276 26.8466 271.538 26.1247C271.628 26.1247 271.628 23.3275 271.628 23.3275ZM343.012 10.7848C340.939 10.7848 339.317 11.5969 337.604 12.8602V11.0555L334.179 12.1383V26.9369H337.604V15.7477C338.866 14.7551 340.308 13.8528 341.84 13.8528C343.913 13.8528 344.274 15.7477 344.274 17.4622V26.8466H347.699V16.3794C347.789 12.3188 345.355 10.7848 343.012 10.7848ZM368.699 15.1161C368.699 14.0333 369.691 13.5821 371.133 13.5821C372.845 13.5821 374.107 14.0333 375.369 14.5747V11.5969C374.197 11.1457 372.845 10.7848 371.043 10.7848C367.347 10.7848 365.365 12.6797 365.365 15.2966C365.365 20.7106 372.575 19.5376 372.575 22.6958C372.575 23.8689 371.403 24.5907 369.691 24.5907C368.068 24.5907 366.626 23.9591 365.635 23.3275V26.4857C366.716 26.9369 368.068 27.2978 369.871 27.2978C373.116 27.2978 376.09 25.9443 376.09 22.5153C376 17.1012 368.699 17.9134 368.699 15.1161ZM356.171 24.4103C357.793 24.4103 358.785 23.6884 359.416 23.147V19.5376L356.892 19.6278C354.549 19.7181 353.557 20.5302 353.557 21.9739C353.467 23.4177 354.368 24.4103 356.171 24.4103ZM362.931 20.5302V26.8466H359.416V25.5833C358.424 26.3954 357.072 27.1173 355.09 27.1173C352.386 27.1173 350.132 25.2224 350.132 22.1544C350.132 18.9059 352.566 17.1012 356.622 17.011L359.506 16.9208V16.4696C359.506 14.304 358.154 13.4919 356.351 13.4919C354.549 13.4919 353.287 14.1235 352.295 14.7551V11.8676C353.918 11.0555 355.36 10.7848 357.072 10.7848C360.678 10.7848 363.021 12.3188 363.021 16.3794L362.931 20.5302ZM242.966 24.4103C244.589 24.4103 245.58 23.6884 246.211 23.147V19.5376L243.687 19.6278C241.344 19.7181 240.353 20.5302 240.353 21.9739C240.262 23.4177 241.164 24.4103 242.966 24.4103ZM249.726 26.9369H246.211V25.6736C245.22 26.4857 243.868 27.2076 241.885 27.2076C239.181 27.2076 236.928 25.3126 236.928 22.2446C236.928 18.9962 239.361 17.1915 243.417 17.1012L246.301 17.011V16.5598C246.301 14.3942 244.949 13.5821 243.147 13.5821C241.344 13.5821 240.082 14.2137 239.091 14.8454V11.8676C240.713 11.0555 242.155 10.7848 243.868 10.7848C247.473 10.7848 249.816 12.3188 249.816 16.3794V26.9369H249.726ZM280.551 13.4919C278.478 13.4919 277.306 15.3868 277.306 17.2817H283.796C283.796 15.477 282.804 13.4919 280.551 13.4919ZM285.959 26.1247C284.517 26.8466 282.894 27.2978 281.362 27.2978C276.135 27.2978 273.791 23.2372 273.791 18.9962C273.791 14.4844 276.405 10.875 280.641 10.875C284.787 10.875 287.401 14.1235 287.401 18.9962V19.9888H277.306C277.306 22.6056 279.199 24.5005 281.993 24.5005C283.345 24.5005 284.697 24.1396 285.959 23.4177V26.1247ZM261.173 10.875C260.993 10.875 260.722 10.7848 260.542 10.7848C259.19 10.7848 258.108 11.1457 256.306 12.77V10.5141L252.881 11.5969V26.9369H256.306V15.5673C257.297 14.5747 258.559 14.0333 259.46 14.0333C260.001 14.0333 260.632 14.1235 261.173 14.4844V10.875ZM298.217 10.875C298.037 10.875 297.766 10.7848 297.586 10.7848C296.234 10.7848 295.062 11.1457 293.35 12.77V10.5141L289.925 11.5969V26.9369H293.35V15.5673C294.341 14.5747 295.603 14.0333 296.504 14.0333C297.045 14.0333 297.676 14.1235 298.217 14.4844V10.875ZM229.537 7.71682C231.61 7.71682 233.322 8.25823 235.035 9.34105V6.00236C233.773 5.37071 231.88 4.8293 229.447 4.8293C222.597 4.73907 218 9.79222 218 16.1989C218 22.4251 221.966 27.2076 228.726 27.2076C230.618 27.2076 232.601 26.7564 234.494 25.854V22.6958C232.962 23.5982 231.159 24.1396 229.266 24.1396C224.58 24.1396 221.695 20.6204 221.695 15.9282C221.786 11.4165 224.58 7.71682 229.537 7.71682Z" fill="#272727"/>
<path d="M515.098 17.9515C515.098 13.5537 512.912 12.3874 510.306 12.3874C507.406 12.3874 505.818 14.5075 505.818 17.7623C505.818 21.1272 507.515 23.6258 510.613 23.6258C512.914 23.6251 515.098 22.2994 515.098 17.9515ZM509.481 8.3026C513.929 8.30001 515.399 11.0228 515.399 11.0228H515.48V10.5264C515.48 9.66398 516.081 8.75165 517.588 8.75165H522.045V12.839H520.567C520.077 12.839 519.74 13.1053 519.74 13.5926V26.8779C519.743 33.5053 514.614 36 509.594 36C507.176 36 504.613 35.3203 502.764 34.3321L504.233 30.5519C504.233 30.5519 506.61 31.8349 509.553 31.8349C512.463 31.8413 514.989 30.5856 514.989 27.1015V26.1949C514.989 25.7414 515.018 25.1783 515.018 25.1783L514.946 25.1718C513.816 26.8021 512.155 27.6736 509.598 27.6736C504.083 27.6736 500.953 23.2046 500.953 17.9126C500.952 12.6077 503.931 8.30001 509.481 8.3026ZM534.665 19.6913C534.665 22.0337 532.853 24.7565 530.287 24.7565C528.323 24.7565 527.381 23.548 527.381 22.2592C527.381 19.5747 531.341 19.2377 533.839 19.2377H534.663V19.6913H534.665ZM562.984 5.15931C563.558 5.15931 563.968 5.23124 563.968 5.23124V1.1458C563.968 1.1458 563.33 1.03435 562.383 1.02916C559.666 1.02916 554.494 1.86828 554.502 8.18921V8.75294H548.19V8.40952C548.188 5.53319 550.533 5.15866 551.885 5.15866C552.455 5.15866 552.869 5.23059 552.869 5.23059L552.865 1.14515C552.865 1.14515 552.226 1.02851 551.244 1.02851C548.564 1.02851 543.391 1.86763 543.391 8.17819L543.399 23.9945V24.0042H540.211C539.682 24.0042 539.376 23.7022 539.376 23.1715V15.9836C539.376 11.6643 537.492 8.30001 531.084 8.30001C529.078 8.30001 524.028 8.68037 524.025 12.2766L524.028 14.3164H528.476V13.2971C528.476 12.2319 530.177 12.0109 531.04 12.0109C533.5 12.0109 534.589 13.0328 534.589 15.7964V15.9454H533.984C530.854 15.9396 522.555 16.4404 522.551 22.4905C522.551 26.342 525.686 28.5024 529.12 28.5024C533.458 28.5024 534.927 25.0992 534.927 25.0992H535.004C535.004 25.0992 534.966 25.4414 534.966 25.9345C534.966 27.0658 535.647 28.0494 537.416 28.054L548.187 28.0475V12.5753H554.5L554.493 28.0494H559.287V12.5753H563.438V8.75294H559.293L559.285 8.41535C559.288 5.53254 561.632 5.15931 562.984 5.15931ZM457.66 23.5934C454.566 23.5934 452.867 21.098 452.867 17.7292C452.867 14.4777 454.452 12.3589 457.358 12.3589C459.959 12.3589 462.145 13.5239 462.152 17.921C462.152 22.2696 459.958 23.5934 457.66 23.5934ZM499.864 5.12626C500.437 5.1308 500.847 5.20402 500.847 5.20402V1.11534C500.847 1.11534 500.209 1 499.262 1C496.546 1 491.382 1.83394 491.382 8.15876V8.72378H485.071L485.067 8.38101C485.071 5.50597 487.409 5.12691 488.77 5.12691C489.336 5.13145 489.75 5.20467 489.75 5.20467V1.11599C489.75 1.11599 489.109 1.00065 488.122 1.00065C485.447 1.00065 480.281 1.83459 480.281 8.15552V23.9666L476.75 23.9783C476.225 23.9783 475.922 23.6731 475.922 23.1391V11.2917C475.922 9.51949 475.174 8.72378 473.398 8.72378H464.645C463.132 8.72378 462.531 9.63418 462.531 10.5025C462.523 10.7636 462.531 10.9936 462.531 10.9936H462.45C462.45 10.9936 460.982 8.27474 456.529 8.27085C450.983 8.27085 448.005 12.5798 448 17.8828C448.005 23.1812 451.13 27.6457 456.637 27.6457C459.206 27.6406 460.869 26.7736 462.001 25.1426H462.073C462.073 25.1426 462.037 25.7116 462.037 26.1664V27.0762C462.037 30.5623 459.509 31.8102 456.606 31.8064C453.656 31.8064 451.285 30.5188 451.285 30.5188L449.816 34.3023C451.657 35.2872 454.228 35.9715 456.645 35.9715C461.663 35.9715 466.795 33.4749 466.793 26.8526L466.795 13.5673C466.795 13.0768 467.128 12.8112 467.62 12.8112H470.344C470.87 12.8112 471.173 13.0768 471.173 13.6406V25.4524C471.173 27.2699 471.925 28.0203 473.697 28.0203H485.072V12.5455H491.383V28.0203H496.17V12.5455H500.322V8.72378H496.17V8.38749C496.169 5.50144 498.509 5.12626 499.864 5.12626Z" fill="#272727"/>
<path d="M472.13 5.83097H476.939V1.01204L472.126 1.01074L472.13 5.83097Z" fill="#272727"/>
<defs>
<clipPath id="clip0_48_3771">
<rect width="155" height="39" fill="white" transform="translate(429 138)"/>
</clipPath>
<clipPath id="clip1_48_3771">
<rect width="125" height="39" fill="white" transform="translate(5 145)"/>
</clipPath>
</defs>
</svg>
