<svg width="39" height="38" viewBox="0 0 39 38" fill="none" xmlns="http://www.w3.org/2000/svg">
<g clip-path="url(#clip0_446_6221)">
<path d="M19.5189 37.4155C29.7116 37.4155 37.9744 29.2063 37.9744 19.0798C37.9744 8.95329 29.7116 0.744141 19.5189 0.744141C9.32626 0.744141 1.06348 8.95329 1.06348 19.0798C1.06348 29.2063 9.32626 37.4155 19.5189 37.4155Z" fill="white"/>
<path d="M19.4993 38C14.2901 38 9.39454 36.024 5.71032 32.4349C2.02897 28.8471 0 24.0758 0 19C0 13.9242 2.02897 9.15431 5.71175 5.56514C9.39454 1.97597 14.2916 0 19.4993 0C24.707 0 29.604 1.97597 33.2882 5.56514C36.971 9.15431 39 13.9257 39 19C39 24.0743 36.971 28.8471 33.2882 32.4349C29.6055 36.024 24.7084 38 19.4993 38ZM19.4993 2.45111C10.1348 2.45111 2.51581 9.87414 2.51581 19C2.51581 28.1259 10.1348 35.5489 19.4993 35.5489C28.8638 35.5489 36.4828 28.1259 36.4828 19C36.4828 9.87414 28.8652 2.45111 19.4993 2.45111Z" fill="#010202"/>
<path d="M9.39443 14.6599H13.713V28.1758H9.39443V14.6599ZM11.5537 7.94385C12.934 7.94385 14.0538 9.03497 14.0538 10.3779C14.0538 11.7208 12.9355 12.8162 11.5537 12.8162C10.1719 12.8162 9.05078 11.7222 9.05078 10.3779C9.05078 9.03354 10.1691 7.94385 11.5537 7.94385Z" fill="#010202"/>
<path d="M16.4174 14.66H20.5527V16.5093H20.6085C21.1856 15.4453 22.5917 14.3257 24.6908 14.3257C29.0566 14.3257 29.8613 17.1225 29.8613 20.7629V28.1759H25.5528V21.605C25.5528 20.0359 25.5213 18.0201 23.3119 18.0201C21.1025 18.0201 20.726 19.7272 20.726 21.4898V28.1745H16.416V14.66H16.4174Z" fill="#010202"/>
</g>
<defs>
<clipPath id="clip0_446_6221">
<rect width="39" height="38" fill="white"/>
</clipPath>
</defs>
</svg>
