<svg width="77" height="28" viewBox="0 0 77 28" fill="none" xmlns="http://www.w3.org/2000/svg">
<path fill-rule="evenodd" clip-rule="evenodd" d="M0 0.458984V27.8286H16.8869V26.0747H1.8816V0.458984H0Z" fill="white"/>
<path fill-rule="evenodd" clip-rule="evenodd" d="M36.8842 0.458984L25.7744 27.8286H27.9017L37.9716 2.6965L48.0413 27.8286H50.216L39.2481 0.458984H36.8842Z" fill="white"/>
<path fill-rule="evenodd" clip-rule="evenodd" d="M75.512 15.5334C74.5376 14.2717 73.3266 13.518 71.8813 13.2713C72.9811 13.0865 73.8769 12.379 74.5687 11.1475C75.2917 9.91693 75.6536 8.45477 75.6536 6.76166C75.6536 4.97703 75.0559 3.3976 73.862 2.10493C72.6355 0.843255 71.1739 0.171875 69.4765 0.171875H58.2524V2.15398H69.0992C70.3878 2.15398 71.4876 2.56509 72.3997 3.48835C73.3111 4.41165 73.7671 5.49437 73.7671 6.787C73.7671 8.38769 73.3111 9.73556 72.3997 10.8739C71.4876 12.0129 70.3878 12.5601 69.0992 12.5601H58.2524V14.2944H69.0992C70.7333 14.2944 72.1327 14.8447 73.2962 15.9526C74.4583 17.0304 75.0404 18.3515 75.0404 19.9211C75.0404 21.5529 74.4583 22.9843 73.2962 24.1535C72.1327 25.3236 70.7333 25.9393 69.0992 25.9393H65.0849V27.6736H69.4765C71.5195 27.6736 73.2799 26.8975 74.7578 25.3892C76.2031 23.8816 76.9268 22.0541 76.9268 19.9303C76.9268 18.2683 76.4552 16.7958 75.512 15.5334Z" fill="white"/>
</svg>
