<svg width="96" height="96" viewBox="0 0 96 96" fill="none" xmlns="http://www.w3.org/2000/svg">
<rect x="0.5" y="0.5" width="95" height="95" fill="#1E1F20" stroke="#1E1F20"/>
<path fill-rule="evenodd" clip-rule="evenodd" d="M7 34.0664V65.9976H25.0931V63.9514H9.016V34.0664H7Z" fill="white"/>
<path fill-rule="evenodd" clip-rule="evenodd" d="M46.5186 34.0664L34.6152 65.9976H36.8944L47.6836 36.6768L58.4726 65.9976H60.8027L49.0513 34.0664H46.5186Z" fill="white"/>
<path fill-rule="evenodd" clip-rule="evenodd" d="M87.9064 51.6542C86.8624 50.1822 85.565 49.3029 84.0164 49.0151C85.1947 48.7995 86.1545 47.974 86.8958 46.5373C87.6705 45.1017 88.0582 43.3958 88.0582 41.4205C88.0582 39.3384 87.4178 37.4958 86.1386 35.9877C84.8245 34.5157 83.2585 33.7324 81.4398 33.7324H69.4141V36.0449H81.0356C82.4163 36.0449 83.5946 36.5245 84.5718 37.6016C85.5483 38.6788 86.0369 39.942 86.0369 41.4501C86.0369 43.3175 85.5483 44.8901 84.5718 46.2181C83.5946 47.5469 82.4163 48.1853 81.0356 48.1853H69.4141V50.2087H81.0356C82.7865 50.2087 84.2858 50.8507 85.5324 52.1432C86.7774 53.4007 87.4011 54.9419 87.4011 56.7732C87.4011 58.677 86.7774 60.347 85.5324 61.711C84.2858 63.0761 82.7865 63.7944 81.0356 63.7944H76.7346V65.8177H81.4398C83.6287 65.8177 85.5149 64.9123 87.0984 63.1526C88.6469 61.3938 89.4224 59.2617 89.4224 56.784C89.4224 54.8449 88.917 53.1271 87.9064 51.6542Z" fill="white"/>
</svg>
