<svg width="576" height="39" viewBox="0 0 576 39" fill="none" xmlns="http://www.w3.org/2000/svg">
<path d="M229.336 34H223.636V5.32187H229.336V17.3631H239.311V5.32187H245.011V34H239.311V22.7069H229.336V34ZM263.039 27.1244L263.11 26.8394H268.454L268.383 27.3381C267.777 31.5062 264.607 34.3206 259.299 34.3206H259.227C252.744 34.3206 249.074 30.2594 249.074 23.4194V23.0987C249.074 16.2231 252.637 12.1619 258.942 12.1619H259.014C265.07 12.1619 268.276 15.8669 268.454 23.4194L268.49 24.9869H254.525C254.988 27.7656 256.698 29.3687 259.299 29.3687H259.37C261.329 29.3687 262.683 28.4781 263.039 27.1244ZM259.085 17.1494H259.049C256.662 17.1494 255.13 18.5744 254.596 21.0681H262.897C262.612 18.4319 261.365 17.1494 259.085 17.1494ZM281.099 34.3206H280.957C274.829 34.3206 271.908 31.7556 271.338 27.2669L271.267 26.6969H276.931L277.003 27.0531C277.288 28.5494 278.677 29.5112 281.064 29.5112H281.206C283.593 29.5112 284.983 28.7987 284.983 27.6231V27.4806C284.983 26.1625 283.486 25.7706 281.491 25.5212L277.501 24.9869C274.402 24.5594 271.588 23.1344 271.588 19.1087V18.895C271.588 14.6556 275.043 12.1619 280.886 12.1619H281.028C286.799 12.1619 289.543 14.7981 290.184 18.9662L290.255 19.4294H284.591L284.519 19.1087C284.234 17.7906 282.952 16.9712 280.743 16.9712H280.601C278.499 16.9712 277.252 17.6125 277.252 18.7169V18.7525C277.252 20.1062 278.499 20.6762 280.244 20.9256L284.234 21.46C287.512 21.8875 290.647 23.1344 290.647 27.3381V27.5875C290.647 31.9337 287.084 34.3206 281.099 34.3206ZM295.678 17.5056H292.828V12.5181H295.678V6.925H301.199V12.5181H305.831V17.5056H301.199V26.3762C301.199 28.2287 302.054 29.1194 303.836 29.1194C304.441 29.1194 305.154 29.0125 305.831 28.9056V33.9287C304.655 34.2138 303.444 34.3563 302.304 34.3563C297.886 34.3563 295.678 32.1831 295.678 27.7656V17.5056ZM315.615 10.1312H309.737V5.32187H315.615V10.1312ZM315.437 34H309.915V12.5181H315.437V34ZM329.501 12.1619H329.572C335.521 12.1619 338.621 15.0831 338.621 20.0706V34H333.099V33.715C333.099 32.0762 333.313 30.9719 334.168 28.015H333.954C332.564 32.3256 330.035 34.3563 326.294 34.3563H326.223C322.198 34.3563 319.419 31.9337 319.419 27.9437V27.8012C319.419 24.4881 321.307 22.2794 325.938 21.8162L330.106 21.3887C332.101 21.175 333.099 20.4981 333.099 19.4294V19.3581C333.099 18.04 331.531 17.3275 329.501 17.3275H329.429C326.758 17.3275 325.796 18.61 325.653 19.9281L325.618 20.2844H320.096L320.131 19.8925C320.594 14.7625 323.801 12.1619 329.501 12.1619ZM327.791 28.87H327.826C330.783 28.87 332.564 27.3737 332.992 24.7375C332.351 25.0225 331.531 25.2006 330.391 25.3075L328.04 25.5569C325.867 25.7706 325.083 26.2694 325.083 27.1956V27.2669C325.083 28.1931 325.831 28.87 327.791 28.87Z" fill="#272727"/>
<path d="M0 14.6572C0.0639321 14.2389 0.118731 13.8298 0.182663 13.4115C0.621055 10.3656 1.90883 7.72886 4.03685 5.50126C6.30188 3.12818 9.06009 1.62796 12.3115 1.17334C17.5905 0.436871 22.0748 2.0462 25.6276 6.01951C27.4908 8.10164 28.6324 10.5747 28.9978 13.3388C29.6188 17.9758 28.3584 22.0673 25.1253 25.4951C22.8968 27.8591 20.1386 29.3048 16.9329 29.7958C12.4942 30.4686 8.5121 29.3684 5.08717 26.4589C2.57555 24.3313 1.00465 21.6036 0.328794 18.3941C0.219196 17.8667 0.182663 17.3121 0.100465 16.7756C0.0730652 16.612 0.0365326 16.4574 0.00913316 16.2938C0 15.7482 0 15.2027 0 14.6572ZM4.74011 15.4664C4.69444 20.7308 9.00529 25.2951 14.5948 25.3042C19.8098 25.3133 24.4586 21.2036 24.4586 15.4755C24.4586 9.86554 19.9285 5.6831 14.6222 5.65582C9.16969 5.63764 4.74011 10.0474 4.74011 15.4664Z" fill="#272727"/>
<path d="M31.7852 38.7516C31.7852 29.1048 31.7852 19.4579 31.7852 9.77462C33.1825 9.77462 34.5434 9.77462 35.9499 9.77462C35.9499 10.502 35.9499 11.2385 35.9499 12.0841C36.1234 11.9386 36.2239 11.8658 36.3152 11.7749C38.2697 9.98375 40.5895 9.31092 43.2107 9.53823C45.357 9.72916 47.2385 10.5384 48.8185 12.0113C50.6451 13.7116 51.6589 15.8392 51.9694 18.2941C52.2252 20.2762 52.0699 22.231 51.2844 24.0858C49.9145 27.3045 47.4942 29.2411 44.0236 29.8321C41.9778 30.1867 39.9959 29.9685 38.1236 29.0229C37.4934 28.7047 36.9271 28.3046 36.4065 27.8318C36.2878 27.7227 36.1691 27.6136 36.0047 27.4682C35.9955 27.6318 35.9773 27.7318 35.9773 27.8318C35.9773 31.4051 35.9773 34.9874 35.9773 38.5607C35.9773 38.6243 35.9864 38.6789 35.9864 38.7425C34.589 38.7516 33.1825 38.7516 31.7852 38.7516ZM35.7946 19.9307C35.822 20.1853 35.8403 20.5489 35.8859 20.9035C36.096 22.3128 36.6714 23.5403 37.7308 24.5132C39.046 25.7224 40.6261 26.1861 42.3888 26.0407C44.462 25.8679 46.0329 24.886 47.0467 23.0675C47.759 21.7946 47.9326 20.4217 47.7773 18.9851C47.4851 16.2301 45.5762 13.6661 42.2518 13.4206C40.3886 13.2842 38.7812 13.8661 37.4934 15.2482C36.3061 16.5393 35.8585 18.1122 35.7946 19.9307Z" fill="#272727"/>
<path d="M117.999 20.4761C117.945 20.8034 117.881 21.1216 117.826 21.449C117.104 25.7678 113.688 29.141 109.359 29.8502C104.062 30.7231 98.9658 27.3953 97.6872 22.2036C96.2898 16.5119 99.8517 11.0202 105.35 9.76542C111.031 8.46523 116.584 12.0203 117.771 17.6939C117.862 18.1303 117.926 18.5849 117.999 19.0213C117.999 19.5032 117.999 19.9851 117.999 20.4761ZM114.045 19.7305C114.036 16.4573 111.46 13.4114 107.679 13.4023C104.062 13.3932 101.322 16.2573 101.313 19.7214C101.304 23.2038 104.08 26.086 107.697 26.0678C111.414 26.0587 114.045 23.0674 114.045 19.7305Z" fill="#272727"/>
<path d="M81.375 38.7517C81.6307 38.0788 81.8773 37.3969 82.1513 36.7241C85.7224 27.8682 89.2934 19.0215 92.8645 10.1747C92.9193 10.0474 92.9741 9.92923 93.0289 9.77466C94.545 9.77466 96.0611 9.77466 97.5681 9.77466C97.5864 9.78375 97.5955 9.79284 97.6046 9.81103C97.6137 9.82012 97.6138 9.8383 97.6138 9.85649C97.5772 9.97469 97.5498 10.0838 97.5042 10.202C93.65 19.7216 89.7958 29.2412 85.9416 38.7608C84.4163 38.7517 82.9002 38.7517 81.375 38.7517Z" fill="#272727"/>
<path d="M70.6065 12.1293C70.6065 11.2838 70.6065 10.5382 70.6065 9.76536C72.013 9.76536 73.3739 9.76536 74.7713 9.76536C74.7713 16.4118 74.7713 23.0401 74.7713 29.6683C74.4607 29.7592 71.5929 29.7956 70.7161 29.7047C70.7161 29.341 70.7161 28.9682 70.7161 28.5954C70.7161 28.2226 70.7161 27.8408 70.7161 27.3771C70.5152 27.5589 70.3691 27.6862 70.2321 27.8135C68.789 29.141 67.072 29.8047 65.1175 29.9411C63.026 30.0865 61.0624 29.6956 59.254 28.6227C57.0438 27.3043 55.6282 25.3677 54.9888 22.9037C54.2034 19.8759 54.4683 16.9391 56.0757 14.2206C57.6923 11.4747 60.1308 9.90175 63.3274 9.54715C65.6655 9.29256 67.7935 9.81992 69.6658 11.2747C69.8211 11.3929 69.9672 11.5293 70.1134 11.6566C70.2595 11.7929 70.3965 11.9293 70.6065 12.1293ZM70.7527 19.8396C70.707 19.3759 70.6796 18.9031 70.5974 18.4394C70.3143 16.8846 69.611 15.548 68.3415 14.5661C65.5833 12.4294 61.4186 13.2841 59.7198 16.3572C58.6147 18.3575 58.5051 20.4579 59.3545 22.5763C59.939 24.022 60.9893 25.0403 62.4415 25.6223C63.4005 26.0132 64.4051 26.1405 65.4372 26.0405C66.9807 25.895 68.2685 25.2677 69.264 24.0857C70.296 22.8673 70.7253 21.4307 70.7527 19.8396Z" fill="#272727"/>
<path d="M77.1289 9.76538C78.645 9.76538 80.088 9.76538 81.5585 9.76538C81.6316 9.91995 81.7229 10.0745 81.7959 10.2382C83.4947 14.0024 85.1935 17.7666 86.9105 21.5308C87.0475 21.8308 87.0566 22.0763 86.9288 22.3854C86.3351 23.8129 85.7689 25.2404 85.1844 26.677C85.1387 26.7861 85.0839 26.8861 85.0017 27.077C82.3713 21.2762 79.7684 15.5571 77.1289 9.76538Z" fill="#272727"/>
<mask id="mask0_531_3225" style="mask-type:luminance" maskUnits="userSpaceOnUse" x="421" y="8" width="155" height="23">
<path d="M421 8.39648H575.52V30.6034H421V8.39648Z" fill="white"/>
</mask>
<g mask="url(#mask0_531_3225)">
<path d="M575.314 9.42831H571.693V23.8414L561.805 9.42752H557.92V30.0006H561.54V14.9015L572.018 30.0022H575.314V9.4291V9.42831ZM542.468 13.4969L545.823 22.0934H539.2L542.468 13.4969ZM540.407 9.42831L532.401 30.0014H536.139L537.935 25.3031H547.059L548.884 30.0022H552.71L544.704 9.42752H540.407V9.42831ZM513.094 9.42831V30.0014H527.398V26.7925H516.802V21.0044H525.721V17.7956H516.802V12.6372H527.398V9.42831H513.094ZM494.375 21.033H499.467C501.851 21.033 503.146 22.2369 503.146 23.9556C503.146 25.675 501.851 26.9075 499.467 26.9075H494.375V21.033ZM494.375 17.9383V12.523H498.79C501.204 12.523 502.528 13.4113 502.528 15.2164C502.528 17.0215 501.204 17.9383 498.79 17.9383H494.375ZM490.755 30.0014H499.673C504.029 30.0014 506.766 27.8529 506.766 24.2712C506.811 23.1493 506.474 22.0459 505.811 21.1488C505.131 20.231 504.174 19.5661 503.087 19.2564C503.996 18.9296 504.782 18.3198 505.332 17.5132C505.87 16.7234 506.136 15.7748 506.089 14.8151C506.089 11.3199 503.676 9.39976 499.143 9.39976H490.755V30.0022V30.0014ZM467.71 25.9915C469.358 28.627 472.949 30.2893 476.54 30.2893C480.895 30.2893 484.545 27.7966 484.545 23.7557C484.545 19.2858 480.455 18.5125 477.04 17.7678C474.185 17.1373 472.567 16.7645 472.567 14.9594C472.567 13.3256 474.126 12.2089 476.393 12.2089C478.865 12.2089 480.425 13.4406 481.602 15.2172L484.369 12.8966C483.478 11.6689 482.303 10.6847 480.948 10.0319C479.573 9.36742 478.061 9.04789 476.54 9.09997C472.272 9.09997 468.917 11.5348 468.917 15.3464C468.917 19.358 472.331 20.2748 475.539 21.0195C478.747 21.765 480.895 22.0506 480.895 24.1428C480.895 26.12 479.1 27.1803 476.716 27.1803C475.482 27.1492 474.274 26.809 473.199 26.1898C472.142 25.5826 471.256 24.7103 470.623 23.6558L467.71 25.9915ZM453.964 13.4961L457.32 22.0934H450.697L453.964 13.4969V13.4961ZM451.904 9.42752L443.899 30.0006H447.637L449.432 25.3023H458.526L460.351 30.0014H464.148L456.172 9.42752H451.904ZM434.892 9.42752V17.7948H424.767V9.42752H421V30.0006H424.768V21.0052H434.892V30.003H438.659V9.42752H434.892Z" fill="#272727"/>
</g>
</svg>
