<svg width="579" height="46" viewBox="0 0 579 46" fill="none" xmlns="http://www.w3.org/2000/svg">
<g clip-path="url(#clip0_531_3240)">
<path d="M488.873 33.0416C482.047 26.1477 475.272 19.3522 468.394 12.5075C468.394 19.0568 468.394 25.4583 468.394 31.9091C467.419 31.9091 466.444 31.9091 465.469 31.9091C465.469 23.1931 465.469 14.4772 465.469 5.66284C472.295 12.5568 479.07 19.3522 485.947 26.2462C485.947 19.6969 485.947 13.2462 485.947 6.79542C486.922 6.79542 487.846 6.79542 488.821 6.79542C488.873 15.4621 488.873 24.178 488.873 33.0416Z" fill="#272727"/>
<path d="M525.93 23.4393C525.93 28.659 521.772 32.5491 516.281 32.5491C510.943 32.5491 506.734 28.5605 506.734 23.39C506.734 18.1704 510.943 14.231 516.435 14.231C521.772 14.2802 526.032 18.3181 525.93 23.4393ZM523.825 23.4393C523.825 19.4014 520.592 16.1514 516.435 16.1514C512.329 16.1514 508.941 19.4507 508.941 23.4393C508.941 27.4279 512.329 30.7272 516.383 30.7272C520.489 30.7272 523.774 27.4772 523.825 23.4393Z" fill="#272727"/>
<path d="M496.623 23.4394C496.623 25.803 496.623 28.0189 496.623 30.3826C499.086 30.3826 501.601 30.3826 504.116 30.3826C504.116 31.0227 504.116 31.6136 504.116 32.2045C500.934 32.2045 497.803 32.2045 494.621 32.2045C494.621 26.3447 494.621 20.5341 494.621 14.625C497.803 14.625 500.934 14.625 504.116 14.625C504.116 15.2159 504.116 15.8068 504.116 16.447C501.601 16.447 499.138 16.447 496.674 16.447C496.674 18.1705 496.674 19.8939 496.674 21.6174C499.035 21.6174 501.499 21.6174 503.911 21.6174C503.911 22.2576 503.911 22.7992 503.911 23.4394C501.499 23.4394 499.086 23.4394 496.623 23.4394Z" fill="#272727"/>
<path d="M545.893 21.6174C548.305 21.6174 550.717 21.6174 553.13 21.6174C553.13 22.2083 553.13 22.7992 553.13 23.4394C550.717 23.4394 548.305 23.4394 545.893 23.4394C545.893 25.7538 545.893 28.0189 545.893 30.3826C548.356 30.3826 550.871 30.3826 553.335 30.3826C553.335 31.0227 553.335 31.6136 553.335 32.2045C550.153 32.2045 547.022 32.2045 543.84 32.2045C543.84 26.3447 543.84 20.5341 543.84 14.625C547.022 14.625 550.153 14.625 553.335 14.625C553.335 15.2159 553.335 15.8068 553.335 16.447C550.82 16.447 548.356 16.447 545.893 16.447C545.893 18.1705 545.893 19.8447 545.893 21.6174Z" fill="#272727"/>
<path d="M566.935 17.0377C566.371 17.3824 565.858 17.7271 565.344 18.0718C565.088 17.7271 564.883 17.3824 564.575 17.1362C563.445 15.9544 561.29 15.8559 560.007 16.89C558.775 17.924 558.724 19.6968 560.058 20.6324C560.828 21.1248 561.7 21.5187 562.522 21.9127C563.291 22.3066 564.113 22.6021 564.831 22.996C567.038 24.1286 567.705 25.7536 567.551 27.6741C567.346 30.0869 566.063 31.7119 563.599 32.4013C561.649 32.943 559.699 32.7953 558.005 31.4657C556.927 30.5794 556.363 29.4468 556.055 28.068C556.722 27.871 557.389 27.7233 558.005 27.5263C558.159 27.9695 558.262 28.3634 558.467 28.7574C559.288 30.4809 561.238 31.2195 563.189 30.5301C564.831 29.9884 565.755 28.2157 565.344 26.4922C565.139 25.6059 564.523 25.0642 563.702 24.6703C562.573 24.1286 561.444 23.6362 560.315 23.0945C559.699 22.7991 559.083 22.4544 558.518 22.0604C556.106 20.2877 556.619 16.5453 559.032 15.1172C561.187 13.8862 564.729 13.8369 566.525 16.5453C566.73 16.6437 566.782 16.7915 566.935 17.0377Z" fill="#272727"/>
<path d="M526.492 14.5755C527.211 14.5755 527.878 14.5755 528.494 14.5755C528.648 14.5755 528.904 14.8217 528.956 15.0187C530.547 19.1058 532.138 23.2422 533.729 27.3293C533.78 27.4771 533.883 27.674 533.986 27.9202C534.807 25.8521 535.577 23.8824 536.295 21.8634C537.219 19.549 538.092 17.2346 538.964 14.9202C539.067 14.6248 539.221 14.4771 539.58 14.4771C540.145 14.4771 540.76 14.4771 541.428 14.4771C538.964 20.7308 536.449 26.9354 533.986 33.2384C531.419 27.0339 528.956 20.8786 526.492 14.5755Z" fill="#272727"/>
<path d="M572.532 16.447C570.992 16.447 569.555 16.447 568.066 16.447C568.066 15.8561 568.066 15.2652 568.066 14.625C571.71 14.625 575.354 14.625 579.05 14.625C579.05 15.2159 579.05 15.8068 579.05 16.3977C577.613 16.3977 576.124 16.3977 574.585 16.3977C574.585 21.6667 574.585 26.9356 574.585 32.1553C573.866 32.1553 573.25 32.1553 572.583 32.1553C572.532 26.9848 572.532 21.7159 572.532 16.447Z" fill="#272727"/>
<path d="M425.005 24.4146L425.902 23.6045L424.988 22.6723L424.091 23.4824L425.005 24.4146Z" fill="#272727"/>
<path d="M426.939 22.6591L427.91 21.7815L426.538 20.3832L425.566 21.2609L426.939 22.6591Z" fill="#272727"/>
<path d="M428.929 21.0484L429.938 20.137L428.143 18.3084L427.134 19.2198L428.929 21.0484Z" fill="#272727"/>
<path d="M430.926 19.3775L431.973 18.4324L429.791 16.2095L428.745 17.1546L430.926 19.3775Z" fill="#272727"/>
<path d="M432.701 17.5122L433.875 16.5562L431.716 14.1162L430.542 15.0723L432.701 17.5122Z" fill="#272727"/>
<path d="M434.951 16.1703L436.164 15.1824L433.341 11.9917L432.128 12.9796L434.951 16.1703Z" fill="#272727"/>
<path d="M438.17 15.9007L439.344 14.9446L434.959 9.98963L433.785 10.9457L438.17 15.9007Z" fill="#272727"/>
<path d="M442.424 17.0602L443.832 15.9128L436.823 7.99243L435.415 9.13974L442.424 17.0602Z" fill="#272727"/>
<path d="M448.435 19.7081L449.922 18.4971L438.528 5.62171L437.042 6.83275L448.435 19.7081Z" fill="#272727"/>
<path d="M458.854 14.1427L457.957 14.9529L458.872 15.8851L459.769 15.0749L458.854 14.1427Z" fill="#272727"/>
<path d="M456.921 15.8572L455.949 16.7349L457.321 18.1331L458.293 17.2555L456.921 15.8572Z" fill="#272727"/>
<path d="M454.911 17.4721L453.902 18.3835L455.697 20.2121L456.706 19.3007L454.911 17.4721Z" fill="#272727"/>
<path d="M452.89 19.1518L451.844 20.0969L454.025 22.3198L455.071 21.3747L452.89 19.1518Z" fill="#272727"/>
<path d="M451.166 20.9763L449.992 21.9324L452.151 24.3723L453.325 23.4162L451.166 20.9763Z" fill="#272727"/>
<path d="M448.893 22.3717L447.68 23.3596L450.503 26.5503L451.716 25.5623L448.893 22.3717Z" fill="#272727"/>
<path d="M445.635 22.6057L444.461 23.5618L448.846 28.5167L450.019 27.5606L445.635 22.6057Z" fill="#272727"/>
<path d="M441.428 21.485L440.02 22.6323L447.028 30.5527L448.437 29.4054L441.428 21.485Z" fill="#272727"/>
<path d="M435.416 18.7897L433.93 20.0007L445.323 32.8761L446.81 31.665L435.416 18.7897Z" fill="#272727"/>
</g>
<path d="M259.313 11.0435C263.39 11.0435 267.488 11.0435 271.564 11.0435C272.456 11.0435 273.305 11.1708 274.133 11.4891C275.025 11.8287 275.79 12.3592 276.448 13.017C279.845 16.4335 283.264 19.8287 286.682 23.224C286.98 23.5211 287.298 23.7545 287.723 23.8394C288.338 23.9667 288.912 23.8394 289.4 23.415C289.485 23.3301 289.591 23.2452 289.676 23.1603C293.498 19.3619 297.299 15.5422 301.121 11.7438C301.652 11.2133 302.289 10.9586 303.032 11.0223C304.136 11.1072 304.985 11.9348 305.155 12.9321C305.304 13.7597 305.07 14.46 304.476 15.0542C300.611 18.9163 296.747 22.7571 292.882 26.6192C291.969 27.5317 290.908 28.1471 289.634 28.4442C288.89 28.614 288.126 28.6564 287.34 28.5503C285.79 28.3593 284.474 27.6803 283.37 26.5556C279.994 23.1815 276.597 19.7863 273.22 16.4123C272.923 16.1152 272.605 15.8605 272.18 15.7756C272.031 15.7332 271.883 15.7332 271.734 15.712C271.628 15.712 271.522 15.712 271.416 15.712C263.135 15.712 254.875 15.712 246.594 15.712C245.49 15.712 244.365 14.9268 244.216 13.6112C244.089 12.3592 244.917 11.3194 246.042 11.0647C246.212 11.0223 246.403 11.0223 246.594 11.0223C250.841 11.0435 255.087 11.0435 259.313 11.0435Z" fill="#1E1E20"/>
<path d="M225.572 11.0437C230.222 11.0437 234.893 11.0437 239.543 11.0437C239.926 11.0437 240.308 11.0649 240.669 11.2134C241.624 11.6166 242.198 12.5928 242.091 13.6113C241.985 14.6299 241.221 15.4787 240.223 15.6697C240.053 15.7122 239.883 15.7122 239.713 15.7122C235.997 15.7122 232.26 15.7122 228.545 15.7122C228.46 15.7122 228.375 15.7122 228.29 15.7122C228.056 15.7334 227.929 15.8819 227.908 16.0941C227.908 16.1578 227.908 16.2214 227.908 16.2851C227.908 19.5955 227.908 22.9059 227.908 26.2162C227.908 27.638 226.761 28.7202 225.338 28.5929C224.064 28.4868 223.215 27.4258 223.194 26.3435C223.194 26.2162 223.194 26.1101 223.194 25.9828C223.194 22.7573 223.194 19.5318 223.194 16.3063C223.194 15.8607 223.024 15.7122 222.599 15.7122C218.862 15.7122 215.147 15.7122 211.41 15.7122C210.284 15.7122 209.223 14.927 209.031 13.7387C208.819 12.423 209.711 11.3195 210.857 11.0649C211.027 11.0225 211.197 11.0225 211.388 11.0225C216.123 11.0437 220.837 11.0437 225.572 11.0437Z" fill="#1E1E20"/>
<path d="M322.862 28.6139C321.185 28.5927 319.614 27.9561 318.34 26.6617C315.134 23.4574 311.927 20.2531 308.721 17.0701C308.042 16.391 307.362 15.712 306.683 15.0329C306.195 14.5448 305.961 13.9719 305.961 13.2928C305.982 12.2106 306.81 11.2345 307.872 11.0435C308.7 10.8949 309.422 11.1284 310.016 11.7225C312.989 14.6934 315.983 17.6855 318.956 20.6563C319.847 21.5476 320.76 22.46 321.652 23.3513C322.395 24.094 323.542 24.094 324.306 23.3513C325.241 22.4388 326.175 21.5051 327.109 20.5714C330.061 17.6218 333.012 14.6934 335.942 11.7438C336.473 11.2132 337.11 10.9586 337.874 11.0223C339 11.1284 339.764 11.956 339.955 12.8897C340.125 13.7385 339.891 14.46 339.276 15.0753C335.411 18.9375 331.547 22.7996 327.682 26.6617C326.727 27.6166 325.559 28.2532 324.221 28.5078C323.839 28.5715 323.415 28.5927 322.862 28.6139Z" fill="#1E1E20"/>
<path d="M349.467 11.0012C351.272 11.0437 352.822 11.6591 354.117 12.9323C358.003 16.8156 361.91 20.6989 365.795 24.5822C367.069 25.8555 366.517 27.9987 364.797 28.508C363.906 28.7627 363.099 28.5292 362.44 27.8926C361.166 26.6406 359.914 25.3886 358.661 24.1154C356.113 21.569 353.565 19.0225 350.996 16.4761C350.932 16.4124 350.847 16.3275 350.784 16.2639C350.04 15.5424 348.894 15.5424 348.151 16.2639C348.087 16.3275 348.002 16.4124 347.938 16.4761C344.116 20.2957 340.294 24.0942 336.494 27.9138C336.048 28.3595 335.496 28.6141 334.88 28.6141C333.606 28.6353 332.65 27.7229 332.481 26.6194C332.374 25.813 332.629 25.1128 333.203 24.5398C335.729 22.0146 338.256 19.4894 340.783 16.9641C342.12 15.6273 343.458 14.2692 344.817 12.9323C345.815 11.9561 347.004 11.3407 348.363 11.1073C348.724 11.0437 349.085 11.0012 349.467 11.0012Z" fill="#1E1E20"/>
<path d="M257.102 28.5928C253.662 28.5928 250.244 28.5928 246.804 28.5928C246.422 28.5928 246.04 28.5716 245.679 28.423C244.723 28.0198 244.129 27.0437 244.235 26.0251C244.341 24.9853 245.127 24.1365 246.146 23.9455C246.294 23.9243 246.443 23.9031 246.613 23.9031C253.62 23.9031 260.627 23.9031 267.613 23.9031C268.674 23.9031 269.672 24.6458 269.927 25.7492C270.203 26.98 269.396 28.2745 268.165 28.5503C267.952 28.5928 267.74 28.614 267.528 28.614C267.209 28.614 266.891 28.614 266.551 28.614C263.408 28.5928 260.266 28.5928 257.102 28.5928Z" fill="#1E1E20"/>
<path d="M253.877 17.4521C256.298 17.4521 258.697 17.4521 261.118 17.4521C262.434 17.4521 263.475 18.4495 263.517 19.7652C263.538 21.1233 262.498 22.0357 261.458 22.1418C261.288 22.1631 261.118 22.1631 260.948 22.1631C256.17 22.1631 251.414 22.1631 246.637 22.1631C245.766 22.1631 245.044 21.8023 244.577 21.0596C243.664 19.5954 244.577 17.7492 246.191 17.4946C246.34 17.4734 246.467 17.4521 246.616 17.4521C249.036 17.4521 251.457 17.4521 253.877 17.4521Z" fill="#1E1E20"/>
<path d="M347.11 26.2586C347.11 24.9642 348.171 23.9032 349.467 23.9244C350.762 23.9244 351.802 24.9854 351.802 26.2798C351.802 27.447 350.91 28.6353 349.445 28.6353C348.002 28.6141 347.089 27.4257 347.11 26.2586Z" fill="#1E1E20"/>
<g clip-path="url(#clip1_531_3240)">
<path d="M61.0928 45.9732C55.1346 45.7581 49.0138 44.3177 42.7563 41.6579C40.2097 40.5754 37.5164 39.2346 34.7758 37.6847C32.9682 36.6625 28.8305 34.152 28.6001 33.9376C28.4552 33.8027 28.3984 33.6762 28.3984 33.488C28.3984 33.1397 28.651 32.8908 29.004 32.8913C29.1869 32.8916 29.2311 32.9107 29.6632 33.1762C31.3973 34.2418 33.7959 35.4487 36.133 36.4318C47.0177 41.0103 59.913 42.6181 72.2915 40.9399C80.7452 39.7939 88.871 37.1123 95.2095 33.3767C96.124 32.8378 96.2084 32.8094 96.4823 32.9494C96.8608 33.1427 96.9429 33.616 96.6481 33.9055C96.5322 34.0194 96.39 34.1097 94.3093 35.3903C88.7603 38.8057 84.2803 41.0606 79.6157 42.7859C73.3416 45.1064 67.0541 46.1883 61.0928 45.9732Z" fill="#272727"/>
<path fill-rule="evenodd" clip-rule="evenodd" d="M0 7.60277C0 7.60277 0.117325 7.96884 0.230813 9.00917C0.366863 11.6008 0.374075 13.7489 0.3898 16.1442C0.421125 17.9938 0.4028 19.7961 0.386675 21.5316C0.3758 22.7069 0.3676 23.3476 0.3676 24.4162C0.3676 27.5961 0.113175 29.8248 0.113175 29.8248C0.113175 29.8248 2.48464 30.3307 6.06411 30.3307C9.64484 30.3307 13.4441 29.1024 15.6363 27.2593C17.828 25.4164 19.8005 22.7784 19.8005 18.0453C19.8005 13.3121 17.7549 10.7103 15.0518 9.01237C12.3479 7.31362 8.21986 6.98895 5.04126 7.13324C1.86344 7.2781 0.109963 7.60277 0 7.60277ZM124.5 25.4164L119.718 24.2966C118.463 25.5245 117.107 26.1347 115.366 26.1028C111.782 26.0378 110.001 23.9481 109.338 20.5021H124.754C124.973 19.2736 125.045 17.9728 124.973 16.7444C124.826 14.2632 124.056 11.9795 122.489 10.024C120.937 8.08796 118.269 7.07265 114.969 7.09694C111.87 7.12018 109.338 8.17043 107.333 10.2771C105.449 12.2562 104.321 15.2742 104.374 19.2013C104.424 22.9321 105.384 25.7099 107.735 27.982C109.371 29.5638 111.571 30.4087 114.457 30.4026C119.955 30.2386 122.24 28.4858 124.5 25.4164ZM120.585 16.6726H109.519C109.715 13.8416 112.335 11.205 115.111 11.2181C117.985 11.2311 120.453 13.2641 120.585 16.6726ZM72.0597 11.3805C75.7193 11.3805 78.687 14.6573 78.687 18.6979C78.687 22.7385 75.7193 26.0154 72.0597 26.0154C68.4013 26.0154 65.433 22.7385 65.433 18.6979C65.433 14.6573 68.4013 11.3805 72.0597 11.3805ZM72.2022 7C78.3433 7 83.3228 12.2773 83.3228 18.6979C83.3228 25.1184 78.2007 30.3251 72.0597 30.3251C65.9198 30.3251 60.9398 25.1184 60.9398 18.6979C60.9398 12.2773 66.0623 7 72.2022 7ZM84.2864 29.5357H89.251V14.6847C93.7935 18.6235 97.1405 23.5741 99.1497 29.5357L103.414 29.5609V7.74706L98.6606 7.74707L98.6555 18.4342C97.1672 15.9725 95.3448 13.9479 93.553 12.2025C91.7583 10.4544 90.3007 8.97422 88.4838 7.74707H84.2864L84.2864 29.5357ZM40.9163 29.5357H45.7386V14.6847C50.2809 18.6235 53.5574 23.5741 55.5665 29.5357H59.8771V7.74706H55.0543V18.2602C52.2522 14.267 48.8576 10.6803 44.972 7.74706H40.9163V29.5357ZM27.144 7.74706H31.8202C36.3608 12.7158 39.1402 19.9425 40.0767 29.5357H34.9982C34.8662 27.8695 34.6604 26.3382 34.3812 24.8007H24.3562C24.0778 26.3358 23.8738 27.8669 23.7463 29.5357H18.8144C19.704 19.8847 22.6844 12.4174 27.144 7.74706ZM33.4455 20.7195C32.3554 17.2759 31.0575 14.443 29.3009 11.8302C27.5556 14.4531 26.1906 17.4102 25.2259 20.7195H33.4455ZM5.08376 11.3968C5.08376 11.3968 6.06409 11.3605 7.27018 11.3605C8.47608 11.3605 11.11 11.5773 13.0458 13.4564C14.9818 15.3355 15.0185 17.467 15.0185 18.9489C15.0185 20.4303 14.5037 23.6459 11.3251 25.091C8.14709 26.5369 5.04726 25.9948 5.04726 25.9948L5.08376 11.3968Z" fill="#272727"/>
</g>
<defs>
<clipPath id="clip0_531_3240">
<rect width="155" height="39" fill="white" transform="translate(424)"/>
</clipPath>
<clipPath id="clip1_531_3240">
<rect width="125" height="39" fill="white" transform="translate(0 7)"/>
</clipPath>
</defs>
</svg>
