<svg width="564" height="36" viewBox="0 0 564 36" fill="none" xmlns="http://www.w3.org/2000/svg">
<path d="M152.675 22.2391L152.615 20.6089C152.558 18.9432 152.209 18.0554 150.887 17.5957C152.229 17.1754 152.968 16.0243 152.968 14.335C152.968 11.6715 151.509 10.4222 148.475 10.4222H141.695V24.2152H144.569V18.845H147.623C149.215 18.845 149.645 19.4028 149.701 21.0331L149.741 22.4867C149.761 23.237 149.862 23.8145 150.075 24.2152H153.221V23.7949C152.695 23.5277 152.691 23.0484 152.675 22.2391ZM147.953 16.4485H144.573V12.803H148.089C149.432 12.803 150.091 13.4354 150.091 14.6257C150.091 15.8907 149.408 16.4485 147.953 16.4485Z" fill="#272727"/>
<path d="M147.018 5.09131C140.137 5.09131 134.539 10.6187 134.539 17.4111C134.539 24.2034 140.137 29.7268 147.018 29.7268C153.898 29.7268 159.496 24.2034 159.496 17.4111C159.496 10.6148 153.898 5.09131 147.018 5.09131ZM147.018 26.8512C141.745 26.8512 137.453 22.6163 137.453 17.4111C137.453 12.2059 141.745 7.97089 147.018 7.97089C152.291 7.97089 156.583 12.2059 156.583 17.4111C156.583 22.6163 152.291 26.8512 147.018 26.8512Z" fill="#272727"/>
<path d="M0 20.9468C0.277304 26.1717 3.90633 29.2084 10.2321 29.2084C16.6623 29.2084 20.2271 26.207 20.2271 21.1549C20.2271 18.6289 19.2223 16.7865 17.1848 15.659C15.6254 14.8066 13.6924 14.3273 11.3373 13.7459C7.22598 12.7245 5.32503 12.7244 5.32503 10.4027C5.32503 8.52486 6.81202 7.43282 9.5087 7.43282C12.5832 7.43282 14.2791 8.69776 14.4519 11.0863H19.363C19.1902 6.16782 15.8023 3.30005 9.95882 3.30005C3.70139 3.30005 0.381739 5.96743 0.381739 10.7091C0.381739 13.2666 1.31418 15.1798 3.07446 16.2719C4.70211 17.2972 6.57088 17.639 8.57229 18.079C13.1378 19.1004 15.2115 19.5482 15.2115 21.7992C15.2115 23.8499 13.7245 24.9067 10.7144 24.9067C7.29832 24.9067 5.4255 23.6771 5.04772 20.9468H0Z" fill="#272727"/>
<path d="M37.5854 10.4027H32.6743V21.1197C32.6743 23.5082 31.1873 24.9421 28.9045 24.9421C26.7986 24.9421 26.0672 23.8146 26.0672 21.3554V10.4027H21.1602V22.7579C21.1602 26.922 23.1696 29.0041 27.2126 29.0041C29.5275 29.0041 31.3922 28.1163 32.7788 26.3759V28.5248H37.5854V10.4027Z" fill="#272727"/>
<path d="M38.7734 35.7964H43.5479V26.2737C44.7536 28.1515 46.6224 29.1415 48.9734 29.1415C53.2616 29.1415 56.5129 25.3505 56.5129 19.3792C56.5129 13.5768 53.362 9.78589 48.9051 9.78589C46.5178 9.78589 44.858 10.7404 43.4394 12.8579V10.4026H38.7774L38.7734 35.7964ZM51.6339 19.5835C51.6339 22.962 50.0786 24.942 47.6592 24.942C45.067 24.942 43.5479 23.0287 43.5479 19.5835C43.5479 15.8632 44.9625 13.954 47.5547 13.954C50.1831 13.954 51.6339 15.8986 51.6339 19.5835Z" fill="#272727"/>
<path d="M62.5214 17.5683C62.7264 15.113 64.0084 13.8167 66.1143 13.8167C68.3971 13.8167 69.6791 15.113 69.7474 17.5683H62.5214ZM69.675 23.029C69.0521 24.4314 67.9831 25.0443 66.3233 25.0443C63.9361 25.0443 62.654 23.5751 62.5174 20.7465H74.7951C74.8273 20.3026 74.8273 19.8901 74.8273 19.4815C74.8273 13.2352 71.6122 9.75464 66.0098 9.75464C60.721 9.75464 57.4375 13.408 57.4375 19.344C57.4375 25.4528 60.8576 29.1417 66.0781 29.1417C70.4386 29.1417 73.5814 26.82 74.5861 23.029H69.675Z" fill="#272727"/>
<path d="M76.0781 28.5208H80.9932V18.9354C80.9932 16.2051 82.3758 14.8379 85.0363 14.8379H86.6599V9.92726C86.4188 9.88798 86.1776 9.88806 85.9365 9.88806C83.5854 9.88806 81.9256 11.0155 80.6436 13.5062V10.4026H76.0821L76.0781 28.5208Z" fill="#272727"/>
<path d="M91.2704 19.3438C91.2704 15.9654 92.8297 13.9855 95.2491 13.9855C97.8413 13.9855 99.3644 15.8986 99.3644 19.3438C99.3644 23.0641 97.9457 24.9774 95.3536 24.9774C92.7292 24.9774 91.2704 23.0288 91.2704 19.3438ZM104.135 3.98743H99.3684V12.6536C98.1547 10.7797 96.2538 9.78592 93.9027 9.78592C89.6146 9.78592 86.3633 13.5768 86.3633 19.5481C86.3633 25.3505 89.5101 29.1376 93.9711 29.1376C96.3583 29.1376 98.0502 28.1829 99.4689 26.0694V28.5247H104.139L104.135 3.98743Z" fill="#272727"/>
<path d="M105.172 28.5208H110.083V18.9354C110.083 16.2051 111.465 14.8379 114.126 14.8379H115.754V9.92726C115.513 9.88798 115.271 9.88806 115.03 9.88806C112.675 9.88806 111.015 11.0155 109.737 13.5062V10.4026H105.172V28.5208Z" fill="#272727"/>
<path d="M118.805 35.7963C119.669 35.8984 120.364 35.9299 120.879 35.9299C124.408 35.9299 125.722 34.8377 126.795 31.7657L134.33 10.3987H129.178L125.412 23.4765L121.538 10.4025H116.141L122.748 28.7289C122.81 28.8925 122.844 29.0651 122.848 29.2396C122.848 31.0546 121.884 31.9385 119.947 31.9385C119.669 31.9385 119.255 31.9385 118.801 31.8678L118.805 35.7963Z" fill="#272727"/>
<path d="M27.1351 6.93783C27.1351 6.93783 27.8143 6.27002 27.979 5.95967C27.979 5.95967 28.5296 6.65497 28.9356 6.96924L29.3937 6.19141C29.3937 6.19141 28.5457 5.41746 28.4372 5.16997C28.4372 5.16997 28.9999 3.98361 29.1606 2.68722L28.7908 2.18441C28.7908 2.18441 28.598 2.21977 28.4935 2.21977H27.3039C27.3039 2.21977 27.0949 2.20799 27.0145 2.1687V3.08404C27.0145 3.08404 27.119 3.06043 27.328 3.06043H28.2282C28.2282 3.06043 28.0594 4.11324 27.967 4.34502C27.967 4.34502 27.5892 3.47296 27.5651 3.15082L26.9221 3.56324C26.9221 3.56324 27.2918 4.84791 27.5249 5.19754C27.5249 5.19754 26.9622 5.99892 26.6367 6.24249L27.1351 6.93783Z" fill="#272727"/>
<path d="M26.024 7.02034C25.7668 7.09106 24.8344 7.07933 24.8344 7.07933L24.6094 6.19144C24.7299 6.23073 25.5136 6.24251 25.5136 6.24251C25.799 6.24251 25.8271 5.53542 25.8271 5.53542C26.0119 3.94831 25.9436 2.76193 25.9436 2.76193H25.4734V5.9832L25.1117 5.97145H23.9985L23.5805 5.9832L23.6207 5.57078V4.06619L23.3072 4.80074C23.135 4.48947 22.986 4.1665 22.8611 3.83433V7.9828C22.8611 8.23423 22.9013 8.43466 22.9013 8.43466H21.9368C21.9729 8.28641 21.9944 8.13505 22.0011 7.9828V4.42753C21.8403 5.24073 21.1893 6.26997 21.1893 6.26997L20.707 5.39395C21.6354 4.06612 21.8805 2.58114 21.8805 2.58114H21.346L20.9843 2.63222V1.6423L21.2938 1.68151H21.9368V0.420527C21.9368 0.302673 21.8805 0.0983887 21.8805 0.0983887H22.9134C22.8732 0.161244 22.833 0.444145 22.833 0.444145V1.70117H23.1746C23.255 1.70117 23.3836 1.66976 23.3836 1.66976V2.5851C23.3434 2.57331 23.1505 2.56148 23.1505 2.56148H22.8611C22.9656 3.02111 23.6167 3.92472 23.6167 3.92472V2.81684C23.6167 2.75006 23.5925 2.50657 23.5925 2.50657C23.6448 2.51836 23.8819 2.53007 23.8819 2.53007H24.7018L25.2765 1.32016H23.9502C23.6207 1.32016 23.3715 1.34762 23.3715 1.34762V0.420527C23.4358 0.444098 23.8418 0.471599 23.8418 0.471599H28.7408C28.8983 0.469753 29.0555 0.456585 29.211 0.432276V1.37519C29.1427 1.34769 28.7488 1.33587 28.7488 1.33587H26.2691L25.9557 1.99189H26.4781C26.5706 1.99189 26.8439 1.9684 26.8439 1.9684C26.8439 1.9684 26.7394 5.12682 26.6229 5.76716C26.6229 5.76716 26.5424 6.86713 26.02 7.02034M24.754 3.2922H24.3119V5.20153H24.754V3.2922Z" fill="#272727"/>
<path d="M23.207 8.16336V7.19299C23.207 7.19299 23.4964 7.23232 23.5969 7.23232H28.8576L29.2997 7.20091V8.1515C29.2997 8.1515 29.0586 8.11229 28.8817 8.11229H23.5969C23.5969 8.11229 23.3155 8.12015 23.207 8.16336Z" fill="#272727"/>
<path d="M37.1434 4.47856C37.063 4.46678 36.7817 4.46682 36.7817 4.46682H33.7996C33.6308 4.46682 33.3817 4.47856 33.3817 4.47856C33.4099 4.39999 33.434 3.9875 33.434 3.9875V3.06437H32.1438C32.1559 6.86321 31.099 8.3953 31.099 8.3953L30.3555 7.54673C31.3321 6.1914 31.1512 1.26509 31.1512 1.26509C31.1512 1.16295 31.111 0.742623 31.111 0.742623C31.1633 0.781908 31.7259 0.781947 31.7259 0.781947H34.4145V0.420485C34.4145 0.33013 34.3904 0.0826416 34.3904 0.0826416H35.4756C35.4354 0.172997 35.4353 0.393031 35.4353 0.393031V0.766241H38.3611C38.5299 0.766241 38.7911 0.742623 38.7911 0.742623V1.65401C38.7268 1.64222 38.4254 1.64226 38.4254 1.64226H37.1353V2.24721H38.4616C38.542 2.24721 38.8032 2.20789 38.8032 2.20789V3.08403C38.751 3.07225 38.5017 3.07216 38.5017 3.07216H37.1193V4.15643C37.1193 4.24285 37.1474 4.47856 37.1474 4.47856M33.45 1.63039H32.164V2.24721H33.45V1.63039ZM36.1829 1.63039H34.4065V2.24721H36.1829V1.63039ZM36.1829 3.06041H34.4065V3.67723H36.1829V3.06041Z" fill="#272727"/>
<path d="M32.8986 4.99326H37.038C37.1485 4.98602 37.2586 4.97286 37.3676 4.95394L37.8499 5.48432C37.6308 5.72118 37.4164 5.96213 37.2069 6.20712C37.1064 6.33284 36.1619 7.02032 36.1619 7.02032C37.1184 7.4171 38.8827 7.45252 38.8827 7.45252L38.5009 8.44639C36.2423 8.18711 35.2215 7.57037 35.2215 7.57037C34.3374 8.12428 32.143 8.44639 32.143 8.44639L31.7773 7.51929C33.2121 7.50751 34.3655 7.03207 34.3655 7.03207C33.843 6.75708 33.1357 5.76318 33.1357 5.76318L32.4846 5.8025V4.93823C32.5088 4.95395 32.8986 4.99326 32.8986 4.99326ZM35.2778 6.63141C35.523 6.56855 36.4111 5.76714 36.4111 5.76714H34.2168C34.4298 6.10499 35.2778 6.63141 35.2778 6.63141Z" fill="#272727"/>
<path d="M42.4997 0.432146V1.00964H43.6611C43.842 1.00964 44.063 0.970321 44.063 0.970321V1.87391C44.0027 1.86213 43.7134 1.83459 43.7134 1.83459H42.5077V2.40034H43.7937V2.63208C44.6899 1.56354 44.9391 0.11792 44.9391 0.11792L45.9438 0.275093C45.9157 0.506873 45.6585 1.24139 45.6585 1.24139H47.8528C48.0337 1.24139 48.3472 1.20218 48.3472 1.20218V2.1843C48.2869 2.16859 47.8648 2.14498 47.8648 2.14498H45.2526C45.2003 2.27069 44.6899 2.99355 44.6899 2.99355H47.0048C47.2902 2.99355 47.4589 2.95422 47.4589 2.95422L48.0096 3.63782C47.254 4.16424 45.5781 6.17564 45.4776 6.38385C45.3691 6.58813 45.0717 7.01237 45.3571 7.2088C45.6464 7.40129 46.4301 7.31098 46.8601 7.29919C47.2901 7.28741 47.3826 6.88666 47.3826 6.88666C47.4991 6.52131 47.4348 5.86522 47.4348 5.86522L48.3994 6.22668C48.2949 7.85307 47.7965 7.99454 47.7965 7.99454C47.3545 8.28918 46.1287 8.23803 46.1287 8.23803C44.9271 8.23803 44.6136 8.04166 44.6136 8.04166C43.7254 7.59381 44.4568 6.26595 44.7462 5.80239C45.0315 5.33883 46.5065 3.88143 46.5065 3.88143H44.8226C44.699 3.89198 44.5767 3.91298 44.4569 3.94426V3.27636L44.2197 3.53568L43.7656 3.09569V5.38986C43.7656 5.5195 43.7776 5.6728 43.7776 5.6728C43.7254 5.66101 43.4119 5.66093 43.4119 5.66093H42.5238V6.25029H43.4883C43.6491 6.25029 43.9304 6.23063 43.9304 6.23063V7.14598C43.8011 7.12712 43.671 7.11397 43.5406 7.10665H42.4836V8.05736C42.4885 8.19297 42.51 8.32747 42.5479 8.45803H41.5311C41.5592 8.36767 41.5954 8.04561 41.5954 8.04561V7.1184H40.4621C40.3013 7.1184 40.028 7.15772 40.028 7.15772V6.21493C40.0682 6.25421 40.446 6.26984 40.446 6.26984H41.5954V5.63743H40.2732C40.2883 5.53455 40.2977 5.43091 40.3013 5.32704V2.7618C40.3013 2.68323 40.2732 2.38859 40.2732 2.38859C40.3696 2.40038 40.4339 2.40031 40.655 2.41209H41.5954V1.82284H40.3696C40.2473 1.83148 40.1253 1.84462 40.0039 1.86217V0.931118C40.0401 0.970403 40.4058 0.98219 40.4058 0.98219H41.5834V0.432146C41.5834 0.314291 41.5431 0.129669 41.5431 0.129669H42.5599C42.5599 0.168954 42.4997 0.432146 42.4997 0.432146ZM42.9015 3.15072H41.2055V3.65353H42.9015V3.15072ZM42.9015 4.37249H41.2055V4.8753H42.9015V4.37249Z" fill="#272727"/>
<path d="M49.7269 1.98767L50.4824 2.08202C50.4824 2.08202 50.5347 3.87339 50.2091 4.73766L49.4375 4.36049C49.4375 4.36049 49.755 3.28014 49.7269 1.98767Z" fill="#272727"/>
<path d="M52.9648 0.432117H56.4774C56.4774 0.432117 56.7627 0.432162 56.831 0.404663V2.20777C56.831 2.20777 56.831 2.34924 56.8431 2.46709L56.5055 2.45534H53.3707C53.3707 2.45534 53.0412 2.47883 52.9889 2.49455L53.001 2.09388V0.844651C53.001 0.844651 52.989 0.561757 52.9648 0.432117ZM55.9027 1.16283H53.9053V1.77174H55.9027V1.16283Z" fill="#272727"/>
<path d="M50.6766 0.263184H51.6974C51.6974 0.263184 51.6451 0.534292 51.6451 0.675717V2.41205C51.6451 2.41205 52.1274 1.83464 52.1676 1.62643L52.6981 2.24709L52.3082 2.7264C52.3082 2.7264 52.5333 2.74989 52.6981 2.74989H54.2936C54.2936 2.74989 54.6352 2.76565 54.6874 2.73815V4.55708H55.0773V3.0839C55.0773 3.0839 55.0773 2.78529 55.0652 2.73815L55.5073 2.74989H57.2756C57.2756 2.74989 57.5609 2.74993 57.6494 2.73815C57.6494 2.73815 57.6373 2.9189 57.6373 3.03283V4.36059L57.6614 4.65527H55.3907V5.13062H57.2595C57.2595 5.13062 57.7177 5.13061 57.782 5.09526V5.94778C57.782 5.94778 57.573 5.93591 57.2475 5.93591H55.8248C55.8248 5.93591 56.291 6.6548 58.0432 7.28728L57.5449 8.19088C57.5449 8.19088 55.7605 7.24024 55.3666 6.45455V8.23404C55.3666 8.23404 55.3787 8.45017 55.4189 8.49731H54.3619C54.3619 8.49731 54.4382 8.30476 54.4382 8.16726V6.47804C54.4382 6.47804 53.747 7.56235 52.2077 8.24591L51.7255 7.50728C51.7255 7.50728 53.317 6.90239 53.9439 5.96348H52.481C52.481 5.96348 52.2721 6.01456 52.2319 6.01456L52.5454 6.25805L52.0872 7.12232C52.0872 7.12232 51.3075 6.39948 51.2432 6.08913C51.2432 6.08913 50.9378 7.44447 50.0777 8.3441L49.3945 7.59767C49.3945 7.59767 50.5078 6.64704 50.6404 4.43923C50.6404 4.43923 50.769 1.3082 50.7208 0.742495C50.7208 0.742495 50.7208 0.302468 50.6766 0.263184ZM51.5929 3.43349C51.5546 3.96624 51.5198 4.49926 51.4884 5.03244C51.5165 5.19743 52.1515 5.94778 52.1515 5.94778V5.09526L52.6619 5.12271H54.3981V4.67098H52.5815C52.4686 4.67525 52.356 4.68439 52.2439 4.69843C52.26 4.63165 52.26 4.392 52.26 4.392V3.11531C52.26 3.00924 52.2198 2.80492 52.2198 2.80492C52.1515 2.92278 51.5929 3.43349 51.5929 3.43349ZM53.9158 3.42175H53.0517V4.01879H53.9158V3.42175ZM56.8134 3.42175H55.8368V4.01879H56.8134V3.42175Z" fill="#272727"/>
<path d="M64.5192 0.467407H63.2211V0.860279L63.1407 5.54693C63.1407 5.73157 63.1006 7.40904 64.479 7.98653C64.479 7.98653 68.2809 9.17691 69.3942 5.31914C69.3942 5.31914 69.6032 4.72594 69.6353 4.67487L68.4939 3.94811C68.4939 3.94811 68.3091 5.61374 67.4611 6.43086C66.6131 7.25584 65.0497 7.23618 64.6398 6.68227C64.2299 6.12835 64.3464 5.08727 64.3464 4.06979C64.3464 3.04839 64.4389 1.04487 64.4509 0.938806L64.5192 0.467407Z" fill="#272727"/>
<path d="M70.5358 1.70492V2.77348H71.9947C71.9947 2.77348 71.2793 5.01669 70.2344 6.40344L71.2913 7.05156C71.2913 7.05156 72.7783 4.08172 73.132 2.73032C73.132 2.73032 74.7114 2.5889 74.9084 2.51033L74.8923 1.44177C74.8923 1.44177 74.418 1.61457 73.4173 1.70492L73.767 0.306435L72.5493 0.161011C72.5493 0.161011 72.5372 0.436018 72.5211 0.518516L72.272 1.78345L71.0542 1.756C71.0542 1.756 70.6323 1.74421 70.5358 1.70492Z" fill="#272727"/>
<path d="M75.3594 2.21963L75.918 1.33569C75.918 1.33569 77.5457 1.90533 78.5383 2.57317L78.036 3.50027C78.036 3.50027 76.6454 2.6164 75.3594 2.21963Z" fill="#272727"/>
<path d="M75.5141 3.28027H76.6153C76.6153 3.28027 76.5108 3.59458 76.4947 3.72422C76.4867 3.85779 76.4947 5.24454 76.563 5.51954C76.563 5.51954 77.8892 6.08918 78.4961 6.75702L77.9656 7.79021C77.9656 7.79021 77.3708 7.10264 76.5349 6.6273C76.5349 6.6273 76.6554 7.7784 75.6346 8.15946C74.6138 8.54446 73.372 8.22619 72.9339 7.71156C72.4959 7.19693 72.3713 6.02238 73.3559 5.46846C73.3559 5.46846 74.0592 4.97742 75.4618 5.26813C75.4618 5.26813 75.3694 3.60634 75.5141 3.28027ZM73.7699 6.45838C73.4082 7.07515 73.9788 7.39334 74.867 7.30299C75.6869 7.21656 75.4658 6.23455 75.4658 6.23455C75.0921 6.15598 74.1276 5.83768 73.7699 6.45838Z" fill="#272727"/>
<path d="M79.7351 1.96824C79.7351 1.96824 80.9809 2.11351 83.1511 1.83852C83.1511 1.83852 82.5965 0.530343 82.5804 0.400703L83.7459 0.24353C83.7459 0.24353 84.1478 1.53603 84.2885 1.72067C84.2885 1.72067 85.9202 1.41425 86.5431 1.16283L86.6877 2.27455C86.6877 2.27455 84.9516 2.64385 84.6502 2.66742C84.6502 2.66742 85.47 4.29383 86.2899 5.3113L85.2168 5.79841C85.2168 5.79841 84.6502 5.11093 82.8698 5.1895C82.8698 5.1895 81.005 5.16204 81.0613 6.31309C81.1135 7.4602 84.4894 7.31479 85.8277 6.52517L85.9724 7.72344C85.9724 7.72344 83.9629 8.45022 81.9052 8.14773C81.9052 8.14773 79.522 7.8805 79.936 5.79841C79.936 5.79841 80.5951 3.46101 84.5577 4.50206C84.5577 4.50206 83.6414 3.12704 83.549 2.80098C83.549 2.80098 80.8965 3.09167 80.1731 3.03667L79.7994 3.05238L79.7109 1.96824" fill="#272727"/>
<path d="M88.0938 1.06079H89.3275C89.3275 1.06079 89.2874 1.39084 89.2994 1.55976C89.2994 1.55976 89.1266 4.33319 89.6973 5.84959C89.6973 5.84959 90.3604 7.92381 91.1039 4.40782L92.0162 5.25638C92.0162 5.25638 91.4335 7.76275 90.268 7.77846C89.1025 7.79024 88.0375 6.39174 88.0938 1.06079Z" fill="#272727"/>
<path d="M91.7501 1.91728L92.7267 1.43005C92.7267 1.43005 94.3343 3.43366 94.6558 6.4193L93.6671 6.82788C93.6671 6.82788 93.5908 4.09366 91.7501 1.91728Z" fill="#272727"/>
<path d="M62.0434 0.00012207H61.103C60.046 1.41438 59.5195 2.85998 59.5195 4.17209C59.5195 5.48421 60.046 6.92208 61.103 8.34419H62.0434C61.2423 7.09413 60.8214 5.64714 60.8297 4.17209C60.8297 2.66749 61.2236 1.32009 62.0434 0.00012207Z" fill="#272727"/>
<path d="M95.3359 0.00012207C96.1558 1.32009 96.5537 2.66749 96.5537 4.17209C96.5537 5.67277 96.1518 7.02422 95.3359 8.34419H96.2804C97.3414 6.92208 97.8598 5.48028 97.8598 4.17209C97.8598 2.85998 97.3374 1.4183 96.2804 0.00012207H95.3359Z" fill="#272727"/>
<path d="M310.384 5.19024L313.809 4.10742V26.1247C313.809 30.1853 312.367 32.9826 307.771 32.9826C306.959 32.9826 305.878 32.8021 305.157 32.5314L305.878 29.8244C306.419 30.0048 307.23 30.0951 307.861 30.0951C310.114 30.0951 310.475 28.2904 310.475 25.6736V5.19024H310.384ZM323.904 24.5005C326.518 24.5005 327.96 22.2446 327.96 19.0864C327.96 15.838 326.428 13.6723 323.814 13.6723C321.2 13.6723 319.758 15.9282 319.758 19.0864C319.848 22.2446 321.38 24.5005 323.904 24.5005ZM329.402 12.9504C330.754 14.3942 331.565 16.4696 331.565 18.9059C331.565 21.3423 330.754 23.5079 329.312 24.9517C327.96 26.3052 326.067 27.1173 323.904 27.1173C321.741 27.1173 319.938 26.4857 318.677 25.2224C317.144 23.7786 316.333 21.5228 316.333 18.9962C316.333 16.4696 317.144 14.304 318.586 12.8602C319.938 11.4165 321.741 10.6946 323.904 10.6946C326.157 10.7848 328.05 11.5969 329.402 12.9504ZM271.628 23.3275C270.997 23.7786 270.006 24.32 269.014 24.32C268.023 24.32 267.482 23.6884 267.482 22.5153V13.943H271.177V11.236H267.392V7.17541L263.967 8.25823V23.6884C263.967 25.7638 265.048 27.2076 267.662 27.2076C268.834 27.2076 270.276 26.8466 271.538 26.1247C271.628 26.1247 271.628 23.3275 271.628 23.3275ZM343.012 10.7848C340.939 10.7848 339.317 11.5969 337.604 12.8602V11.0555L334.179 12.1383V26.9369H337.604V15.7477C338.866 14.7551 340.308 13.8528 341.84 13.8528C343.913 13.8528 344.274 15.7477 344.274 17.4622V26.8466H347.699V16.3794C347.789 12.3188 345.355 10.7848 343.012 10.7848ZM368.699 15.1161C368.699 14.0333 369.691 13.5821 371.133 13.5821C372.845 13.5821 374.107 14.0333 375.369 14.5747V11.5969C374.197 11.1457 372.845 10.7848 371.043 10.7848C367.347 10.7848 365.365 12.6797 365.365 15.2966C365.365 20.7106 372.575 19.5376 372.575 22.6958C372.575 23.8689 371.403 24.5907 369.691 24.5907C368.068 24.5907 366.626 23.9591 365.635 23.3275V26.4857C366.716 26.9369 368.068 27.2978 369.871 27.2978C373.116 27.2978 376.09 25.9443 376.09 22.5153C376 17.1012 368.699 17.9134 368.699 15.1161ZM356.171 24.4103C357.793 24.4103 358.785 23.6884 359.416 23.147V19.5376L356.892 19.6278C354.549 19.7181 353.557 20.5302 353.557 21.9739C353.467 23.4177 354.368 24.4103 356.171 24.4103ZM362.931 20.5302V26.8466H359.416V25.5833C358.424 26.3954 357.072 27.1173 355.09 27.1173C352.386 27.1173 350.132 25.2224 350.132 22.1544C350.132 18.9059 352.566 17.1012 356.622 17.011L359.506 16.9208V16.4696C359.506 14.304 358.154 13.4919 356.351 13.4919C354.549 13.4919 353.287 14.1235 352.295 14.7551V11.8676C353.918 11.0555 355.36 10.7848 357.072 10.7848C360.678 10.7848 363.021 12.3188 363.021 16.3794L362.931 20.5302ZM242.966 24.4103C244.589 24.4103 245.58 23.6884 246.211 23.147V19.5376L243.687 19.6278C241.344 19.7181 240.353 20.5302 240.353 21.9739C240.262 23.4177 241.164 24.4103 242.966 24.4103ZM249.726 26.9369H246.211V25.6736C245.22 26.4857 243.868 27.2076 241.885 27.2076C239.181 27.2076 236.928 25.3126 236.928 22.2446C236.928 18.9962 239.361 17.1915 243.417 17.1012L246.301 17.011V16.5598C246.301 14.3942 244.949 13.5821 243.147 13.5821C241.344 13.5821 240.082 14.2137 239.091 14.8454V11.8676C240.713 11.0555 242.155 10.7848 243.868 10.7848C247.473 10.7848 249.816 12.3188 249.816 16.3794V26.9369H249.726ZM280.551 13.4919C278.478 13.4919 277.306 15.3868 277.306 17.2817H283.796C283.796 15.477 282.804 13.4919 280.551 13.4919ZM285.959 26.1247C284.517 26.8466 282.894 27.2978 281.362 27.2978C276.135 27.2978 273.791 23.2372 273.791 18.9962C273.791 14.4844 276.405 10.875 280.641 10.875C284.787 10.875 287.401 14.1235 287.401 18.9962V19.9888H277.306C277.306 22.6056 279.199 24.5005 281.993 24.5005C283.345 24.5005 284.697 24.1396 285.959 23.4177V26.1247ZM261.173 10.875C260.993 10.875 260.722 10.7848 260.542 10.7848C259.19 10.7848 258.108 11.1457 256.306 12.77V10.5141L252.881 11.5969V26.9369H256.306V15.5673C257.297 14.5747 258.559 14.0333 259.46 14.0333C260.001 14.0333 260.632 14.1235 261.173 14.4844V10.875ZM298.217 10.875C298.037 10.875 297.766 10.7848 297.586 10.7848C296.234 10.7848 295.062 11.1457 293.35 12.77V10.5141L289.925 11.5969V26.9369H293.35V15.5673C294.341 14.5747 295.603 14.0333 296.504 14.0333C297.045 14.0333 297.676 14.1235 298.217 14.4844V10.875ZM229.537 7.71682C231.61 7.71682 233.322 8.25823 235.035 9.34105V6.00236C233.773 5.37071 231.88 4.8293 229.447 4.8293C222.597 4.73907 218 9.79222 218 16.1989C218 22.4251 221.966 27.2076 228.726 27.2076C230.618 27.2076 232.601 26.7564 234.494 25.854V22.6958C232.962 23.5982 231.159 24.1396 229.266 24.1396C224.58 24.1396 221.695 20.6204 221.695 15.9282C221.786 11.4165 224.58 7.71682 229.537 7.71682Z" fill="#272727"/>
<path d="M515.098 17.9515C515.098 13.5537 512.912 12.3874 510.306 12.3874C507.406 12.3874 505.818 14.5075 505.818 17.7623C505.818 21.1272 507.515 23.6258 510.613 23.6258C512.914 23.6251 515.098 22.2994 515.098 17.9515ZM509.481 8.3026C513.929 8.30001 515.399 11.0228 515.399 11.0228H515.48V10.5264C515.48 9.66398 516.081 8.75165 517.588 8.75165H522.045V12.839H520.567C520.077 12.839 519.74 13.1053 519.74 13.5926V26.8779C519.743 33.5053 514.614 36 509.594 36C507.176 36 504.613 35.3203 502.764 34.3321L504.233 30.5519C504.233 30.5519 506.61 31.8349 509.553 31.8349C512.463 31.8413 514.989 30.5856 514.989 27.1015V26.1949C514.989 25.7414 515.018 25.1783 515.018 25.1783L514.946 25.1718C513.816 26.8021 512.155 27.6736 509.598 27.6736C504.083 27.6736 500.953 23.2046 500.953 17.9126C500.952 12.6077 503.931 8.30001 509.481 8.3026ZM534.665 19.6913C534.665 22.0337 532.853 24.7565 530.287 24.7565C528.323 24.7565 527.381 23.548 527.381 22.2592C527.381 19.5747 531.341 19.2377 533.839 19.2377H534.663V19.6913H534.665ZM562.984 5.15931C563.558 5.15931 563.968 5.23124 563.968 5.23124V1.1458C563.968 1.1458 563.33 1.03435 562.383 1.02916C559.666 1.02916 554.494 1.86828 554.502 8.18921V8.75294H548.19V8.40952C548.188 5.53319 550.533 5.15866 551.885 5.15866C552.455 5.15866 552.869 5.23059 552.869 5.23059L552.865 1.14515C552.865 1.14515 552.226 1.02851 551.244 1.02851C548.564 1.02851 543.391 1.86763 543.391 8.17819L543.399 23.9945V24.0042H540.211C539.682 24.0042 539.376 23.7022 539.376 23.1715V15.9836C539.376 11.6643 537.492 8.30001 531.084 8.30001C529.078 8.30001 524.028 8.68037 524.025 12.2766L524.028 14.3164H528.476V13.2971C528.476 12.2319 530.177 12.0109 531.04 12.0109C533.5 12.0109 534.589 13.0328 534.589 15.7964V15.9454H533.984C530.854 15.9396 522.555 16.4404 522.551 22.4905C522.551 26.342 525.686 28.5024 529.12 28.5024C533.458 28.5024 534.927 25.0992 534.927 25.0992H535.004C535.004 25.0992 534.966 25.4414 534.966 25.9345C534.966 27.0658 535.647 28.0494 537.416 28.054L548.187 28.0475V12.5753H554.5L554.493 28.0494H559.287V12.5753H563.438V8.75294H559.293L559.285 8.41535C559.288 5.53254 561.632 5.15931 562.984 5.15931ZM457.66 23.5934C454.566 23.5934 452.867 21.098 452.867 17.7292C452.867 14.4777 454.452 12.3589 457.358 12.3589C459.959 12.3589 462.145 13.5239 462.152 17.921C462.152 22.2696 459.958 23.5934 457.66 23.5934ZM499.864 5.12626C500.437 5.1308 500.847 5.20402 500.847 5.20402V1.11534C500.847 1.11534 500.209 1 499.262 1C496.546 1 491.382 1.83394 491.382 8.15876V8.72378H485.071L485.067 8.38101C485.071 5.50597 487.409 5.12691 488.77 5.12691C489.336 5.13145 489.75 5.20467 489.75 5.20467V1.11599C489.75 1.11599 489.109 1.00065 488.122 1.00065C485.447 1.00065 480.281 1.83459 480.281 8.15552V23.9666L476.75 23.9783C476.225 23.9783 475.922 23.6731 475.922 23.1391V11.2917C475.922 9.51949 475.174 8.72378 473.398 8.72378H464.645C463.132 8.72378 462.531 9.63418 462.531 10.5025C462.523 10.7636 462.531 10.9936 462.531 10.9936H462.45C462.45 10.9936 460.982 8.27474 456.529 8.27085C450.983 8.27085 448.005 12.5798 448 17.8828C448.005 23.1812 451.13 27.6457 456.637 27.6457C459.206 27.6406 460.869 26.7736 462.001 25.1426H462.073C462.073 25.1426 462.037 25.7116 462.037 26.1664V27.0762C462.037 30.5623 459.509 31.8102 456.606 31.8064C453.656 31.8064 451.285 30.5188 451.285 30.5188L449.816 34.3023C451.657 35.2872 454.228 35.9715 456.645 35.9715C461.663 35.9715 466.795 33.4749 466.793 26.8526L466.795 13.5673C466.795 13.0768 467.128 12.8112 467.62 12.8112H470.344C470.87 12.8112 471.173 13.0768 471.173 13.6406V25.4524C471.173 27.2699 471.925 28.0203 473.697 28.0203H485.072V12.5455H491.383V28.0203H496.17V12.5455H500.322V8.72378H496.17V8.38749C496.169 5.50144 498.509 5.12626 499.864 5.12626Z" fill="#272727"/>
<path d="M472.129 5.83122H476.938V1.01228L472.125 1.01099L472.129 5.83122Z" fill="#272727"/>
</svg>
